<?xml version="1.0" encoding="UTF-8" standalone="no"?>
<!-- Created with Inkscape (http://www.inkscape.org/) -->

<svg
   width="300"
   height="139.79115"
   viewBox="0 0 300 139.79115"
   version="1.1"
   id="svg1"
   xml:space="preserve"
   xmlns="http://www.w3.org/2000/svg"
   xmlns:svg="http://www.w3.org/2000/svg"><defs
     id="defs1"><marker
       style="overflow:visible"
       id="ArrowWide"
       refX="0"
       refY="0"
       orient="auto-start-reverse"
       markerWidth="1"
       markerHeight="1"
       viewBox="0 0 1 1"
       preserveAspectRatio="xMidYMid"><path
         style="fill:none;stroke:context-stroke;stroke-width:1;stroke-linecap:butt"
         d="M 3,-3 0,0 3,3"
         transform="rotate(180,0.125,0)"
         id="path12" /></marker></defs><g
     id="layer1"
     transform="translate(0,-99.330927)"><path
       d="m 17.576894,109.41446 c 3.730984,0.47486 8.445593,1.18713 13.465469,1.18713 7.835074,0 14.923941,-1.93333 22.114575,-3.45964 7.292381,-1.56022 14.82218,-3.15438 22.792927,-3.15438 15.907574,0 21.300545,3.42573 21.843235,3.79882 l 1.153205,0.81403 v 0.88188 54.8455 48.19756 h -5.42689 v -48.60459 c -2.035085,-0.84794 -7.394137,-2.34033 -17.603469,-2.34033 -7.394137,0 -14.313422,2.81519 -21.67364,4.40933 -7.461973,1.59415 -15.195282,3.25614 -23.573039,3.25614 -4.985955,0 -9.395304,-0.67836 -13.126288,-1.11929 -2.035086,-0.23744 -3.832741,-0.47486 -5.426888,-0.7462 v -53.21743 -5.59649 c 1.594147,0.30527 3.425723,0.57661 5.460803,0.84796 z m 0,53.25135 c 3.730984,0.47485 8.106418,1.18712 13.126288,1.18712 7.835072,0 15.263122,-1.59414 22.453756,-3.12045 7.292381,-1.56023 14.788261,-4.51111 22.759008,-4.51111 8.716937,0 14.211665,1.01755 17.603469,2.03509 v -46.56949 c -2.035085,-0.84795 -7.428056,-2.30642 -17.603469,-2.30642 -7.394137,0 -14.313422,1.45847 -21.67364,3.05262 -7.461973,1.59414 -14.856099,3.59531 -23.233864,3.59531 -4.985955,0 -9.734479,-0.67835 -13.465463,-1.11929 z"
       id="path1"
       style="stroke-width:0.33918" /><path
       d="m 247.47575,237.52205 c 0.36073,-1.00629 0.62283,-2.2833 2.21101,-3.60635 2.4788,-2.06505 8.05874,-3.84002 12.96828,-5.66148 5.00025,-1.84665 10.13419,-3.75422 12.65595,-5.85501 5.03272,-4.19267 0.8257,-5.77956 0.35339,-5.94062 l -1.04028,-0.34327 -1.52223,-0.0426 -94.67036,-2.64944 -83.195168,-2.3283 -1.716927,1.43033 83.897745,2.34797 c 0.81981,0.57734 1.70038,2.06188 -1.52959,4.7527 -2.33931,1.94883 -9.38779,3.63651 -14.46806,5.49939 -5.11251,1.88968 -10.4279,3.84763 -13.07841,6.05571 -1.57743,1.31412 -1.80149,2.50903 -2.22078,3.51369 -0.234,0.54784 -0.39291,1.0331 -0.42891,1.46637 l 91.86013,2.5708 9.66025,0.27035 c -0.0234,-0.4349 0.0886,-0.93074 0.26396,-1.48023 z m -91.91862,-2.57243 c 0.36074,-1.00631 0.51553,-2.19391 2.10369,-3.51697 2.47883,-2.06504 7.58054,-3.9458 12.49009,-5.76727 5.00029,-1.84663 12.46537,-3.67973 14.98711,-5.78053 2.75782,-2.29747 2.73978,-3.79483 2.05648,-4.73795 l 80.38488,2.24966 c 0.81983,0.57734 1.63113,2.06918 -1.58808,4.75106 -2.33935,1.94882 -7.04593,3.70205 -12.12621,5.56492 -5.11249,1.88971 -10.90606,3.74186 -13.5566,5.94994 -1.57739,1.31411 -1.90879,2.59843 -2.32809,3.60307 z"
       id="path6"
       style="fill:#999999;stroke:#999999;stroke-width:0.232587" /><path
       style="opacity:1;fill:#0000ff;stroke:#225500;stroke-width:3"
       d="m 0,211.78846 c 300,0 300,0 300,0"
       id="path2" /><path
       style="opacity:0.5;fill:#b3b3b3;stroke:#999999;stroke-width:2.67605;stroke-dasharray:10.7042, 2.67605;stroke-dashoffset:0;marker-end:url(#ArrowWide)"
       d="M 98.946305,109.4823 270.10307,199.96296"
       id="path7" /><path
       style="opacity:1;fill:#b3b3b3;stroke:#d40000;stroke-width:2.67605;stroke-dasharray:10.7042, 2.67605;stroke-dashoffset:0;marker-start:url(#ArrowWide)"
       d="m 108.11308,104.11702 181.68086,99.60941"
       id="path10" /></g></svg>
