<svg id="my-svg" width="100%" xmlns="http://www.w3.org/2000/svg" xmlns:xlink="http://www.w3.org/1999/xlink" class="flowchart" style="max-width: 679.141px; background-color: white;" viewBox="0 0 679.140625 333" role="graphics-document document" aria-roledescription="flowchart-v2"><style>#my-svg{font-family:"trebuchet ms",verdana,arial,sans-serif;font-size:16px;fill:#000000;}@keyframes edge-animation-frame{from{stroke-dashoffset:0;}}@keyframes dash{to{stroke-dashoffset:0;}}#my-svg .edge-animation-slow{stroke-dasharray:9,5!important;stroke-dashoffset:900;animation:dash 50s linear infinite;stroke-linecap:round;}#my-svg .edge-animation-fast{stroke-dasharray:9,5!important;stroke-dashoffset:900;animation:dash 20s linear infinite;stroke-linecap:round;}#my-svg .error-icon{fill:#552222;}#my-svg .error-text{fill:#552222;stroke:#552222;}#my-svg .edge-thickness-normal{stroke-width:1px;}#my-svg .edge-thickness-thick{stroke-width:3.5px;}#my-svg .edge-pattern-solid{stroke-dasharray:0;}#my-svg .edge-thickness-invisible{stroke-width:0;fill:none;}#my-svg .edge-pattern-dashed{stroke-dasharray:3;}#my-svg .edge-pattern-dotted{stroke-dasharray:2;}#my-svg .marker{fill:#666;stroke:#666;}#my-svg .marker.cross{stroke:#666;}#my-svg svg{font-family:"trebuchet ms",verdana,arial,sans-serif;font-size:16px;}#my-svg p{margin:0;}#my-svg .label{font-family:"trebuchet ms",verdana,arial,sans-serif;color:#000000;}#my-svg .cluster-label text{fill:#333;}#my-svg .cluster-label span{color:#333;}#my-svg .cluster-label span p{background-color:transparent;}#my-svg .label text,#my-svg span{fill:#000000;color:#000000;}#my-svg .node rect,#my-svg .node circle,#my-svg .node ellipse,#my-svg .node polygon,#my-svg .node path{fill:#eee;stroke:#999;stroke-width:1px;}#my-svg .rough-node .label text,#my-svg .node .label text,#my-svg .image-shape .label,#my-svg .icon-shape .label{text-anchor:middle;}#my-svg .node .katex path{fill:#000;stroke:#000;stroke-width:1px;}#my-svg .rough-node .label,#my-svg .node .label,#my-svg .image-shape .label,#my-svg .icon-shape .label{text-align:center;}#my-svg .node.clickable{cursor:pointer;}#my-svg .root .anchor path{fill:#666!important;stroke-width:0;stroke:#666;}#my-svg .arrowheadPath{fill:#333333;}#my-svg .edgePath .path{stroke:#666;stroke-width:2.0px;}#my-svg .flowchart-link{stroke:#666;fill:none;}#my-svg .edgeLabel{background-color:white;text-align:center;}#my-svg .edgeLabel p{background-color:white;}#my-svg .edgeLabel rect{opacity:0.5;background-color:white;fill:white;}#my-svg .labelBkg{background-color:rgba(255, 255, 255, 0.5);}#my-svg .cluster rect{fill:hsl(0, 0%, 98.9215686275%);stroke:#707070;stroke-width:1px;}#my-svg .cluster text{fill:#333;}#my-svg .cluster span{color:#333;}#my-svg div.mermaidTooltip{position:absolute;text-align:center;max-width:200px;padding:2px;font-family:"trebuchet ms",verdana,arial,sans-serif;font-size:12px;background:hsl(-160, 0%, 93.3333333333%);border:1px solid #707070;border-radius:2px;pointer-events:none;z-index:100;}#my-svg .flowchartTitleText{text-anchor:middle;font-size:18px;fill:#000000;}#my-svg rect.text{fill:none;stroke-width:0;}#my-svg .icon-shape,#my-svg .image-shape{background-color:white;text-align:center;}#my-svg .icon-shape p,#my-svg .image-shape p{background-color:white;padding:2px;}#my-svg .icon-shape rect,#my-svg .image-shape rect{opacity:0.5;background-color:white;fill:white;}#my-svg .label-icon{display:inline-block;height:1em;overflow:visible;vertical-align:-0.125em;}#my-svg .node .label-icon path{fill:currentColor;stroke:revert;stroke-width:revert;}#my-svg :root{--mermaid-font-family:"trebuchet ms",verdana,arial,sans-serif;}</style><g><marker id="my-svg_flowchart-v2-pointEnd" class="marker flowchart-v2" viewBox="0 0 10 10" refX="5" refY="5" markerUnits="userSpaceOnUse" markerWidth="8" markerHeight="8" orient="auto"><path d="M 0 0 L 10 5 L 0 10 z" class="arrowMarkerPath" style="stroke-width: 1; stroke-dasharray: 1, 0;"/></marker><marker id="my-svg_flowchart-v2-pointStart" class="marker flowchart-v2" viewBox="0 0 10 10" refX="4.5" refY="5" markerUnits="userSpaceOnUse" markerWidth="8" markerHeight="8" orient="auto"><path d="M 0 5 L 10 10 L 10 0 z" class="arrowMarkerPath" style="stroke-width: 1; stroke-dasharray: 1, 0;"/></marker><marker id="my-svg_flowchart-v2-circleEnd" class="marker flowchart-v2" viewBox="0 0 10 10" refX="11" refY="5" markerUnits="userSpaceOnUse" markerWidth="11" markerHeight="11" orient="auto"><circle cx="5" cy="5" r="5" class="arrowMarkerPath" style="stroke-width: 1; stroke-dasharray: 1, 0;"/></marker><marker id="my-svg_flowchart-v2-circleStart" class="marker flowchart-v2" viewBox="0 0 10 10" refX="-1" refY="5" markerUnits="userSpaceOnUse" markerWidth="11" markerHeight="11" orient="auto"><circle cx="5" cy="5" r="5" class="arrowMarkerPath" style="stroke-width: 1; stroke-dasharray: 1, 0;"/></marker><marker id="my-svg_flowchart-v2-crossEnd" class="marker cross flowchart-v2" viewBox="0 0 11 11" refX="12" refY="5.2" markerUnits="userSpaceOnUse" markerWidth="11" markerHeight="11" orient="auto"><path d="M 1,1 l 9,9 M 10,1 l -9,9" class="arrowMarkerPath" style="stroke-width: 2; stroke-dasharray: 1, 0;"/></marker><marker id="my-svg_flowchart-v2-crossStart" class="marker cross flowchart-v2" viewBox="0 0 11 11" refX="-1" refY="5.2" markerUnits="userSpaceOnUse" markerWidth="11" markerHeight="11" orient="auto"><path d="M 1,1 l 9,9 M 10,1 l -9,9" class="arrowMarkerPath" style="stroke-width: 2; stroke-dasharray: 1, 0;"/></marker><g class="root"><g class="clusters"><g class="cluster" id="si" data-look="classic"><rect style="" x="380.21875" y="8" width="290.921875" height="317"/><g class="cluster-label" transform="translate(493.9375, 8)"><g><rect class="background" style="stroke: none"/><text y="-10.1" style=""><tspan class="text-outer-tspan" x="0" y="-0.1em" dy="1.1em"><tspan font-style="normal" class="text-inner-tspan" font-weight="normal">Sintético</tspan></tspan></text></g></g></g><g class="cluster" id="an" data-look="classic"><rect style="" x="8" y="8" width="322.21875" height="317"/><g class="cluster-label" transform="translate(137.46875, 8)"><g><rect class="background" style="stroke: none"/><text y="-10.1" style=""><tspan class="text-outer-tspan" x="0" y="-0.1em" dy="1.1em"><tspan font-style="normal" class="text-inner-tspan" font-weight="normal">Analítico</tspan></tspan></text></g></g></g></g><g class="edgePaths"><path d="M96.762,142.5L106.247,130C115.732,117.5,134.702,92.5,148.838,80C162.974,67.5,172.276,67.5,176.927,67.5L181.578,67.5" id="L_A_$$T_1$$_0" class="edge-thickness-normal edge-pattern-solid edge-thickness-normal edge-pattern-solid flowchart-link" style=";" data-edge="true" data-et="edge" data-id="L_A_$$T_1$$_0" data-points="W3sieCI6OTYuNzYyNDI4OTc3MjcyNzMsInkiOjE0Mi41fSx7IngiOjE1My42NzE4NzUsInkiOjY3LjV9LHsieCI6MTg1LjU3ODEyNSwieSI6NjcuNX1d" marker-end="url(#my-svg_flowchart-v2-pointEnd)"/><path d="M122.266,167L127.5,166.917C132.734,166.833,143.203,166.667,153.089,166.583C162.974,166.5,172.276,166.5,176.927,166.5L181.578,166.5" id="L_A_$$T_2$$_0" class="edge-thickness-normal edge-pattern-solid edge-thickness-normal edge-pattern-solid flowchart-link" style=";" data-edge="true" data-et="edge" data-id="L_A_$$T_2$$_0" data-points="W3sieCI6MTIyLjI2NTYyNSwieSI6MTY3fSx7IngiOjE1My42NzE4NzUsInkiOjE2Ni41fSx7IngiOjE4NS41NzgxMjUsInkiOjE2Ni41fV0=" marker-end="url(#my-svg_flowchart-v2-pointEnd)"/><path d="M96.762,191.5L106.247,203.833C115.732,216.167,134.702,240.833,148.838,253.167C162.974,265.5,172.276,265.5,176.927,265.5L181.578,265.5" id="L_A_$$T_3$$_0" class="edge-thickness-normal edge-pattern-solid edge-thickness-normal edge-pattern-solid flowchart-link" style=";" data-edge="true" data-et="edge" data-id="L_A_$$T_3$$_0" data-points="W3sieCI6OTYuNzYyNDI4OTc3MjcyNzMsInkiOjE5MS41fSx7IngiOjE1My42NzE4NzUsInkiOjI2NS41fSx7IngiOjE4NS41NzgxMjUsInkiOjI2NS41fV0=" marker-end="url(#my-svg_flowchart-v2-pointEnd)"/><path d="M305.219,67.5L309.385,67.5C313.552,67.5,321.885,67.5,330.219,67.5C338.552,67.5,346.885,67.5,355.219,67.5C363.552,67.5,371.885,67.5,379.552,67.5C387.219,67.5,394.219,67.5,397.719,67.5L401.219,67.5" id="L_$$T_1$$_$$O_1$$_0" class="edge-thickness-normal edge-pattern-solid edge-thickness-normal edge-pattern-solid flowchart-link" style=";" data-edge="true" data-et="edge" data-id="L_$$T_1$$_$$O_1$$_0" data-points="W3sieCI6MzA1LjIxODc1LCJ5Ijo2Ny41fSx7IngiOjMzMC4yMTg3NSwieSI6NjcuNX0seyJ4IjozNTUuMjE4NzUsInkiOjY3LjV9LHsieCI6MzgwLjIxODc1LCJ5Ijo2Ny41fSx7IngiOjQwNS4yMTg3NSwieSI6NjcuNX1d" marker-end="url(#my-svg_flowchart-v2-pointEnd)"/><path d="M305.219,166.5L309.385,166.5C313.552,166.5,321.885,166.5,330.219,166.5C338.552,166.5,346.885,166.5,355.219,166.5C363.552,166.5,371.885,166.5,379.552,166.5C387.219,166.5,394.219,166.5,397.719,166.5L401.219,166.5" id="L_$$T_2$$_$$O_2$$_0" class="edge-thickness-normal edge-pattern-solid edge-thickness-normal edge-pattern-solid flowchart-link" style=";" data-edge="true" data-et="edge" data-id="L_$$T_2$$_$$O_2$$_0" data-points="W3sieCI6MzA1LjIxODc1LCJ5IjoxNjYuNX0seyJ4IjozMzAuMjE4NzUsInkiOjE2Ni41fSx7IngiOjM1NS4yMTg3NSwieSI6MTY2LjV9LHsieCI6MzgwLjIxODc1LCJ5IjoxNjYuNX0seyJ4Ijo0MDUuMjE4NzUsInkiOjE2Ni41fV0=" marker-end="url(#my-svg_flowchart-v2-pointEnd)"/><path d="M305.219,265.5L309.385,265.5C313.552,265.5,321.885,265.5,330.219,265.5C338.552,265.5,346.885,265.5,355.219,265.5C363.552,265.5,371.885,265.5,379.552,265.5C387.219,265.5,394.219,265.5,397.719,265.5L401.219,265.5" id="L_$$T_3$$_$$O_3$$_0" class="edge-thickness-normal edge-pattern-solid edge-thickness-normal edge-pattern-solid flowchart-link" style=";" data-edge="true" data-et="edge" data-id="L_$$T_3$$_$$O_3$$_0" data-points="W3sieCI6MzA1LjIxODc1LCJ5IjoyNjUuNX0seyJ4IjozMzAuMjE4NzUsInkiOjI2NS41fSx7IngiOjM1NS4yMTg3NSwieSI6MjY1LjV9LHsieCI6MzgwLjIxODc1LCJ5IjoyNjUuNX0seyJ4Ijo0MDUuMjE4NzUsInkiOjI2NS41fV0=" marker-end="url(#my-svg_flowchart-v2-pointEnd)"/><path d="M526.344,67.5L531.215,67.5C536.086,67.5,545.828,67.5,557.691,79.056C569.554,90.612,583.537,113.723,590.529,125.279L597.521,136.835" id="L_$$O_1$$_M_0" class="edge-thickness-normal edge-pattern-dotted edge-thickness-normal edge-pattern-solid flowchart-link" style=";" data-edge="true" data-et="edge" data-id="L_$$O_1$$_M_0" data-points="W3sieCI6NTI2LjM0Mzc1LCJ5Ijo2Ny41fSx7IngiOjU1NS41NzAzMTI1LCJ5Ijo2Ny41fSx7IngiOjU5OS41OTExNTg1NzU5Njk5LCJ5IjoxNDAuMjU3NTUzMzQyMjA1NX1d" marker-end="url(#my-svg_flowchart-v2-pointEnd)"/><path d="M526.344,166.5L531.215,166.5C536.086,166.5,545.828,166.5,554.904,166.5C563.979,166.5,572.388,166.5,576.592,166.5L580.797,166.5" id="L_$$O_2$$_M_0" class="edge-thickness-normal edge-pattern-dotted edge-thickness-normal edge-pattern-solid flowchart-link" style=";" data-edge="true" data-et="edge" data-id="L_$$O_2$$_M_0" data-points="W3sieCI6NTI2LjM0Mzc1LCJ5IjoxNjYuNX0seyJ4Ijo1NTUuNTcwMzEyNSwieSI6MTY2LjV9LHsieCI6NTg0Ljc5Njg3NSwieSI6MTY2LjV9XQ==" marker-end="url(#my-svg_flowchart-v2-pointEnd)"/><path d="M526.344,265.5L531.215,265.5C536.086,265.5,545.828,265.5,557.691,253.944C569.554,242.388,583.537,219.277,590.529,207.721L597.521,196.165" id="L_$$O_3$$_M_0" class="edge-thickness-normal edge-pattern-dotted edge-thickness-normal edge-pattern-solid flowchart-link" style=";" data-edge="true" data-et="edge" data-id="L_$$O_3$$_M_0" data-points="W3sieCI6NTI2LjM0Mzc1LCJ5IjoyNjUuNX0seyJ4Ijo1NTUuNTcwMzEyNSwieSI6MjY1LjV9LHsieCI6NTk5LjU5MTE1ODU3NTk2OTksInkiOjE5Mi43NDI0NDY2NTc3OTQ1fV0=" marker-end="url(#my-svg_flowchart-v2-pointEnd)"/></g><g class="edgeLabels"><g><rect class="background" style="stroke: none"/></g><g><rect class="background" style="stroke: none"/></g><g><rect class="background" style="stroke: none"/></g><g class="edgeLabel" transform="translate(153.671875, 67.5)"><g class="label" data-id="L_A_$$T_1$$_0" transform="translate(-6.90625, -11.5)"><g><rect class="background" style="" x="-2" y="-1" width="13.8125" height="23"/><text y="-10.1" style=""><tspan class="text-outer-tspan" x="0" y="-0.1em" dy="1.1em"><tspan font-style="normal" class="text-inner-tspan" font-weight="normal">D</tspan></tspan></text></g></g></g><g class="edgeLabel" transform="translate(153.671875, 166.5)"><g class="label" data-id="L_A_$$T_2$$_0" transform="translate(-6.90625, -11.5)"><g><rect class="background" style="" x="-2" y="-1" width="13.8125" height="23"/><text y="-10.1" style=""><tspan class="text-outer-tspan" x="0" y="-0.1em" dy="1.1em"><tspan font-style="normal" class="text-inner-tspan" font-weight="normal">D</tspan></tspan></text></g></g></g><g class="edgeLabel" transform="translate(153.671875, 265.5)"><g class="label" data-id="L_A_$$T_3$$_0" transform="translate(-6.90625, -11.5)"><g><rect class="background" style="" x="-2" y="-1" width="13.8125" height="23"/><text y="-10.1" style=""><tspan class="text-outer-tspan" x="0" y="-0.1em" dy="1.1em"><tspan font-style="normal" class="text-inner-tspan" font-weight="normal">D</tspan></tspan></text></g></g></g><g class="edgeLabel"><g class="label" data-id="L_$$T_1$$_$$O_1$$_0" transform="translate(0, 0)"><text y="-10.1"><tspan class="text-outer-tspan" x="0" y="-0.1em" dy="1.1em"/></text></g></g><g class="edgeLabel"><g class="label" data-id="L_$$T_2$$_$$O_2$$_0" transform="translate(0, 0)"><text y="-10.1"><tspan class="text-outer-tspan" x="0" y="-0.1em" dy="1.1em"/></text></g></g><g class="edgeLabel"><g class="label" data-id="L_$$T_3$$_$$O_3$$_0" transform="translate(0, 0)"><text y="-10.1"><tspan class="text-outer-tspan" x="0" y="-0.1em" dy="1.1em"/></text></g></g><g class="edgeLabel" transform="translate(555.5703125, 67.5)"><g class="label" data-id="L_$$O_1$$_M_0" transform="translate(-4.2265625, -11.5)"><g><rect class="background" style="" x="-2" y="-1" width="8.453125" height="23"/><text y="-10.1" style=""><tspan class="text-outer-tspan" x="0" y="-0.1em" dy="1.1em"><tspan font-style="normal" class="text-inner-tspan" font-weight="normal">I</tspan></tspan></text></g></g></g><g class="edgeLabel" transform="translate(555.5703125, 166.5)"><g class="label" data-id="L_$$O_2$$_M_0" transform="translate(-4.2265625, -11.5)"><g><rect class="background" style="" x="-2" y="-1" width="8.453125" height="23"/><text y="-10.1" style=""><tspan class="text-outer-tspan" x="0" y="-0.1em" dy="1.1em"><tspan font-style="normal" class="text-inner-tspan" font-weight="normal">I</tspan></tspan></text></g></g></g><g class="edgeLabel" transform="translate(555.5703125, 265.5)"><g class="label" data-id="L_$$O_3$$_M_0" transform="translate(-4.2265625, -11.5)"><g><rect class="background" style="" x="-2" y="-1" width="8.453125" height="23"/><text y="-10.1" style=""><tspan class="text-outer-tspan" x="0" y="-0.1em" dy="1.1em"><tspan font-style="normal" class="text-inner-tspan" font-weight="normal">I</tspan></tspan></text></g></g></g></g><g class="nodes"><g class="node default" id="flowchart-A-0" transform="translate(77.3828125, 166.5)"><g class="basic label-container outer-path"><path d="M-39.3828125 -24.5 C-17.445007295700176 -24.5, 4.492797908599648 -24.5, 39.3828125 -24.5 C39.3828125 -24.5, 39.3828125 -24.5, 39.3828125 -24.5 C39.5455246757425 -24.493270174630595, 39.708236851485005 -24.48654034926119, 39.79570922736166 -24.482922465033347 C39.95249466749385 -24.463379180301903, 40.10928010762604 -24.44383589557046, 40.20578545140367 -24.431806517013612 C40.29608562761532 -24.412872561140603, 40.38638580382697 -24.393938605267593, 40.610239935703994 -24.347001329696653 C40.74256060359165 -24.307607760067008, 40.8748812714793 -24.268214190437366, 41.00630984602342 -24.229086208503173 C41.09237216896765 -24.195504585882773, 41.17843449191187 -24.161922963262374, 41.391289623264846 -24.078866633275286 C41.475883796479444 -24.037511061969383, 41.56047796969404 -23.996155490663476, 41.762549465185366 -23.897368756032446 C41.84545131578125 -23.84796997537842, 41.92835316637713 -23.798571194724392, 42.117553290612136 -23.685832391312644 C42.248085323461986 -23.592634311194335, 42.378617356311835 -23.499436231076025, 42.45387606344834 -23.44570254698197 C42.53668362733226 -23.37556811794907, 42.61949119121617 -23.305433688916168, 42.769220358128706 -23.178619553365657 C42.85521859000387 -23.092621321490494, 42.94121682187903 -23.00662308961533, 43.06143205336566 -22.886407858128706 C43.167170144546326 -22.761563129781393, 43.27290823572699 -22.63671840143408, 43.32851504698197 -22.57106356344834 C43.38477089678166 -22.492272343449734, 43.44102674658136 -22.413481123451124, 43.568644891312644 -22.234740790612136 C43.62975702914276 -22.132181390300826, 43.69086916697287 -22.02962198998952, 43.78018125603245 -21.87973696518537 C43.83399733586264 -21.769654414391642, 43.88781341569283 -21.65957186359791, 43.96167913327529 -21.508477123264846 C44.01725434309011 -21.366050066989406, 44.07282955290493 -21.22362301071397, 44.111898708503176 -21.123497346023417 C44.137906348687615 -21.0361392225596, 44.16391398887205 -20.948781099095783, 44.22981382969665 -20.727427435703994 C44.25980091995289 -20.584412444416706, 44.289788010209115 -20.44139745312942, 44.31461901701361 -20.32297295140367 C44.326869251351084 -20.224695798472837, 44.339119485688556 -20.126418645542007, 44.36573496503335 -19.912896727361662 C44.370527303254356 -19.79702867194688, 44.375319641475365 -19.681160616532097, 44.3828125 -19.5 C44.3828125 -19.5, 44.3828125 -19.5, 44.3828125 -19.5 C44.3828125 -9.420935862619011, 44.3828125 0.6581282747619781, 44.3828125 19.5 C44.3828125 19.5, 44.3828125 19.5, 44.3828125 19.5 C44.3762433054156 19.658828481428817, 44.3696741108312 19.817656962857633, 44.36573496503335 19.912896727361662 C44.34971798410953 20.041392496534446, 44.333701003185716 20.16988826570723, 44.31461901701361 20.32297295140367 C44.285606605493655 20.46133948664587, 44.2565941939737 20.59970602188807, 44.22981382969665 20.727427435703994 C44.18515921383657 20.87741964637248, 44.14050459797648 21.027411857040967, 44.111898708503176 21.123497346023417 C44.0681813960224 21.235535215887648, 44.02446408354163 21.347573085751883, 43.96167913327529 21.508477123264846 C43.90943127112447 21.615351833523007, 43.85718340897364 21.72222654378117, 43.78018125603245 21.879736965185366 C43.71276563265123 21.992874979188613, 43.64535000927 22.106012993191857, 43.568644891312644 22.234740790612133 C43.47718129957882 22.362843521329435, 43.38571770784499 22.490946252046733, 43.32851504698197 22.57106356344834 C43.263204554756975 22.648175515905727, 43.19789406253199 22.725287468363117, 43.06143205336566 22.886407858128706 C42.97740629828454 22.97043361320982, 42.89338054320343 23.05445936829093, 42.769220358128706 23.178619553365657 C42.687376145787596 23.247938065261966, 42.60553193344648 23.317256577158272, 42.45387606344834 23.44570254698197 C42.345031917935586 23.52341577317201, 42.23618777242284 23.601128999362057, 42.117553290612136 23.685832391312644 C42.02526134831836 23.740826452129554, 41.93296940602458 23.795820512946463, 41.762549465185366 23.897368756032446 C41.67264959015615 23.941318126903784, 41.58274971512694 23.985267497775123, 41.391289623264846 24.078866633275286 C41.302574421595416 24.113483412386465, 41.213859219925986 24.148100191497647, 41.00630984602342 24.229086208503173 C40.92096737920601 24.254493761704094, 40.8356249123886 24.279901314905015, 40.610239935703994 24.347001329696653 C40.45536108493326 24.37947600969376, 40.30048223416252 24.411950689690865, 40.20578545140367 24.431806517013612 C40.10742474786017 24.444067165924093, 40.00906404431667 24.45632781483457, 39.79570922736166 24.482922465033347 C39.65172475556456 24.488877706837954, 39.507740283767454 24.494832948642564, 39.3828125 24.5 C39.3828125 24.5, 39.3828125 24.5, 39.3828125 24.5 C10.54767764440982 24.5, -18.28745721118036 24.5, -39.3828125 24.5 C-39.3828125 24.5, -39.3828125 24.5, -39.3828125 24.5 C-39.48435494442031 24.49580017343255, -39.58589738884063 24.4916003468651, -39.79570922736166 24.482922465033347 C-39.92136483922334 24.46725950934916, -40.047020451085004 24.45159655366497, -40.20578545140367 24.431806517013612 C-40.31129207000657 24.40968410546642, -40.41679868860948 24.38756169391923, -40.610239935703994 24.347001329696653 C-40.72842626534055 24.311815734882675, -40.84661259497712 24.276630140068697, -41.00630984602342 24.229086208503173 C-41.12307470051567 24.18352442089693, -41.23983955500793 24.137962633290687, -41.391289623264846 24.078866633275286 C-41.5098850125039 24.020888880318413, -41.62848040174295 23.962911127361537, -41.762549465185366 23.897368756032446 C-41.8911754430052 23.82072430938788, -42.01980142082504 23.744079862743316, -42.117553290612136 23.685832391312644 C-42.231987631421056 23.604127842397332, -42.346421972229976 23.522423293482017, -42.45387606344834 23.44570254698197 C-42.53317846019894 23.378536843075494, -42.61248085694953 23.31137113916902, -42.769220358128706 23.17861955336566 C-42.84126496156184 23.10657494993253, -42.91330956499497 23.034530346499395, -43.06143205336566 22.886407858128706 C-43.12894675603317 22.806693399319595, -43.19646145870068 22.726978940510485, -43.32851504698197 22.57106356344834 C-43.40964528958121 22.457433588682363, -43.490775532180464 22.343803613916382, -43.568644891312644 22.234740790612133 C-43.64456420247368 22.10733174715223, -43.720483513634726 21.97992270369233, -43.78018125603244 21.87973696518537 C-43.82186434033544 21.794472853427276, -43.86354742463843 21.709208741669183, -43.96167913327528 21.50847712326485 C-44.00254398145381 21.403749492895045, -44.04340882963235 21.299021862525237, -44.111898708503176 21.123497346023417 C-44.149252694470675 20.998027518892883, -44.18660668043818 20.872557691762353, -44.22981382969665 20.727427435703994 C-44.25956185562942 20.585552594456114, -44.28930988156219 20.44367775320823, -44.31461901701361 20.32297295140367 C-44.33068991137361 20.194044663238465, -44.34676080573361 20.06511637507326, -44.36573496503335 19.912896727361662 C-44.37107689302363 19.78374081643561, -44.376418821013914 19.65458490550956, -44.3828125 19.5 C-44.3828125 19.5, -44.3828125 19.5, -44.3828125 19.5 C-44.3828125 10.79800205065779, -44.3828125 2.096004101315579, -44.3828125 -19.5 C-44.3828125 -19.5, -44.3828125 -19.5, -44.3828125 -19.5 C-44.37661452368002 -19.649853251290853, -44.37041654736004 -19.799706502581707, -44.36573496503335 -19.91289672736166 C-44.348706182680345 -20.049509644423384, -44.331677400327344 -20.18612256148511, -44.31461901701361 -20.32297295140367 C-44.285180611661026 -20.463371144393975, -44.25574220630843 -20.60376933738428, -44.22981382969665 -20.727427435703994 C-44.19142707865284 -20.8563662595757, -44.15304032760903 -20.98530508344741, -44.111898708503176 -21.123497346023417 C-44.067915772951466 -21.236215949477288, -44.023932837399755 -21.348934552931162, -43.96167913327529 -21.508477123264846 C-43.897926939377555 -21.63888432024209, -43.83417474547982 -21.769291517219333, -43.78018125603245 -21.879736965185366 C-43.70474710996512 -22.00633179656188, -43.62931296389778 -22.132926627938396, -43.568644891312644 -22.234740790612133 C-43.51703751087514 -22.30702142418325, -43.46543013043763 -22.37930205775437, -43.32851504698197 -22.57106356344834 C-43.26035549976717 -22.651539388775735, -43.19219595255237 -22.732015214103132, -43.06143205336566 -22.886407858128706 C-42.967723283866555 -22.980116627627808, -42.87401451436745 -23.07382539712691, -42.769220358128706 -23.178619553365657 C-42.66523364920016 -23.266691803238118, -42.561246940271616 -23.35476405311058, -42.45387606344834 -23.445702546981966 C-42.35877153313331 -23.513605876474355, -42.26366700281828 -23.581509205966743, -42.117553290612136 -23.685832391312644 C-42.019261105107624 -23.74440182102792, -41.92096891960312 -23.8029712507432, -41.762549465185366 -23.897368756032446 C-41.62758550440569 -23.963348616011597, -41.49262154362601 -24.02932847599075, -41.391289623264846 -24.078866633275286 C-41.28223470948758 -24.121419992679048, -41.173179795710325 -24.163973352082806, -41.00630984602342 -24.229086208503173 C-40.903391404204896 -24.25972635617379, -40.80047296238637 -24.290366503844407, -40.610239935703994 -24.347001329696653 C-40.52436540665716 -24.365007324942745, -40.43849087761032 -24.383013320188837, -40.20578545140367 -24.431806517013612 C-40.111888354965046 -24.443510777878707, -40.01799125852643 -24.455215038743802, -39.79570922736166 -24.482922465033347 C-39.653279615434144 -24.48881339735805, -39.510850003506626 -24.494704329682754, -39.3828125 -24.5 C-39.3828125 -24.5, -39.3828125 -24.5, -39.3828125 -24.5" stroke="none" stroke-width="0" fill="#eee" style=""/><path d="M-39.3828125 -24.5 C-19.50007168655739 -24.5, 0.3826691268852187 -24.5, 39.3828125 -24.5 M-39.3828125 -24.5 C-17.05764111859957 -24.5, 5.267530262800861 -24.5, 39.3828125 -24.5 M39.3828125 -24.5 C39.3828125 -24.5, 39.3828125 -24.5, 39.3828125 -24.5 M39.3828125 -24.5 C39.3828125 -24.5, 39.3828125 -24.5, 39.3828125 -24.5 M39.3828125 -24.5 C39.48349406075662 -24.49583577984426, 39.58417562151323 -24.49167155968852, 39.79570922736166 -24.482922465033347 M39.3828125 -24.5 C39.48870145377564 -24.495620400475826, 39.59459040755128 -24.491240800951655, 39.79570922736166 -24.482922465033347 M39.79570922736166 -24.482922465033347 C39.89330980037416 -24.470756566294746, 39.99091037338666 -24.458590667556145, 40.20578545140367 -24.431806517013612 M39.79570922736166 -24.482922465033347 C39.881696317378314 -24.472204185440503, 39.96768340739496 -24.461485905847663, 40.20578545140367 -24.431806517013612 M40.20578545140367 -24.431806517013612 C40.32591886559777 -24.406617188945262, 40.44605227979187 -24.38142786087691, 40.610239935703994 -24.347001329696653 M40.20578545140367 -24.431806517013612 C40.30891055599813 -24.41018345644267, 40.41203566059259 -24.388560395871732, 40.610239935703994 -24.347001329696653 M40.610239935703994 -24.347001329696653 C40.741569574534196 -24.30790280220066, 40.872899213364406 -24.268804274704667, 41.00630984602342 -24.229086208503173 M40.610239935703994 -24.347001329696653 C40.73768339101735 -24.309059769161365, 40.8651268463307 -24.27111820862608, 41.00630984602342 -24.229086208503173 M41.00630984602342 -24.229086208503173 C41.0908822790577 -24.19608594272965, 41.175454712091984 -24.163085676956126, 41.391289623264846 -24.078866633275286 M41.00630984602342 -24.229086208503173 C41.12631732694261 -24.182259144138843, 41.24632480786181 -24.13543207977451, 41.391289623264846 -24.078866633275286 M41.391289623264846 -24.078866633275286 C41.51489860861942 -24.01843788252772, 41.63850759397398 -23.958009131780155, 41.762549465185366 -23.897368756032446 M41.391289623264846 -24.078866633275286 C41.51317705643875 -24.019279498105472, 41.635064489612645 -23.95969236293566, 41.762549465185366 -23.897368756032446 M41.762549465185366 -23.897368756032446 C41.88442060969755 -23.824749316387372, 42.00629175420974 -23.7521298767423, 42.117553290612136 -23.685832391312644 M41.762549465185366 -23.897368756032446 C41.8406313537451 -23.85084204935111, 41.91871324230483 -23.804315342669778, 42.117553290612136 -23.685832391312644 M42.117553290612136 -23.685832391312644 C42.20513711726598 -23.623298741025117, 42.29272094391981 -23.560765090737586, 42.45387606344834 -23.44570254698197 M42.117553290612136 -23.685832391312644 C42.218932066743896 -23.61344933641077, 42.32031084287566 -23.541066281508893, 42.45387606344834 -23.44570254698197 M42.45387606344834 -23.44570254698197 C42.54351246568941 -23.36978438689029, 42.63314886793049 -23.293866226798613, 42.769220358128706 -23.178619553365657 M42.45387606344834 -23.44570254698197 C42.57470986957303 -23.343361533637978, 42.69554367569772 -23.241020520293986, 42.769220358128706 -23.178619553365657 M42.769220358128706 -23.178619553365657 C42.862173933674214 -23.08566597782015, 42.95512750921972 -22.99271240227464, 43.06143205336566 -22.886407858128706 M42.769220358128706 -23.178619553365657 C42.874254591582165 -23.073585319912198, 42.979288825035624 -22.968551086458742, 43.06143205336566 -22.886407858128706 M43.06143205336566 -22.886407858128706 C43.160978179748106 -22.768873968803906, 43.260524306130556 -22.651340079479105, 43.32851504698197 -22.57106356344834 M43.06143205336566 -22.886407858128706 C43.13893525184276 -22.794900004602304, 43.21643845031986 -22.703392151075903, 43.32851504698197 -22.57106356344834 M43.32851504698197 -22.57106356344834 C43.39875858641105 -22.472681365181955, 43.46900212584012 -22.374299166915574, 43.568644891312644 -22.234740790612136 M43.32851504698197 -22.57106356344834 C43.396979150501856 -22.475173620239765, 43.46544325402174 -22.379283677031186, 43.568644891312644 -22.234740790612136 M43.568644891312644 -22.234740790612136 C43.62822938978925 -22.134745099926292, 43.68781388826585 -22.034749409240447, 43.78018125603245 -21.87973696518537 M43.568644891312644 -22.234740790612136 C43.64933076225187 -22.0993324277084, 43.7300166331911 -21.96392406480467, 43.78018125603245 -21.87973696518537 M43.78018125603245 -21.87973696518537 C43.85216227873536 -21.732497429847964, 43.92414330143828 -21.58525789451056, 43.96167913327529 -21.508477123264846 M43.78018125603245 -21.87973696518537 C43.85048104782055 -21.735936442651575, 43.920780839608646 -21.592135920117776, 43.96167913327529 -21.508477123264846 M43.96167913327529 -21.508477123264846 C44.00083863918711 -21.40811991056506, 44.03999814509893 -21.307762697865268, 44.111898708503176 -21.123497346023417 M43.96167913327529 -21.508477123264846 C44.009376948726434 -21.386238098560984, 44.057074764177585 -21.263999073857125, 44.111898708503176 -21.123497346023417 M44.111898708503176 -21.123497346023417 C44.15140858896919 -20.99078599692318, 44.190918469435196 -20.858074647822942, 44.22981382969665 -20.727427435703994 M44.111898708503176 -21.123497346023417 C44.14450734185401 -21.013966877359344, 44.177115975204835 -20.904436408695272, 44.22981382969665 -20.727427435703994 M44.22981382969665 -20.727427435703994 C44.24784755108387 -20.641420674626733, 44.265881272471084 -20.555413913549472, 44.31461901701361 -20.32297295140367 M44.22981382969665 -20.727427435703994 C44.26335502344328 -20.56746214762665, 44.29689621718991 -20.4074968595493, 44.31461901701361 -20.32297295140367 M44.31461901701361 -20.32297295140367 C44.331099627018645 -20.19075773125042, 44.34758023702367 -20.05854251109717, 44.36573496503335 -19.912896727361662 M44.31461901701361 -20.32297295140367 C44.327942632960074 -20.216084625361056, 44.341266248906535 -20.10919629931844, 44.36573496503335 -19.912896727361662 M44.36573496503335 -19.912896727361662 C44.372377135878786 -19.752303842614882, 44.379019306724224 -19.591710957868102, 44.3828125 -19.5 M44.36573496503335 -19.912896727361662 C44.371150994172794 -19.781949215830274, 44.37656702331224 -19.651001704298885, 44.3828125 -19.5 M44.3828125 -19.5 C44.3828125 -19.5, 44.3828125 -19.5, 44.3828125 -19.5 M44.3828125 -19.5 C44.3828125 -19.5, 44.3828125 -19.5, 44.3828125 -19.5 M44.3828125 -19.5 C44.3828125 -7.4929185360584825, 44.3828125 4.514162927883035, 44.3828125 19.5 M44.3828125 -19.5 C44.3828125 -9.900235820241605, 44.3828125 -0.3004716404832095, 44.3828125 19.5 M44.3828125 19.5 C44.3828125 19.5, 44.3828125 19.5, 44.3828125 19.5 M44.3828125 19.5 C44.3828125 19.5, 44.3828125 19.5, 44.3828125 19.5 M44.3828125 19.5 C44.37752053814193 19.62794784123045, 44.37222857628385 19.755895682460903, 44.36573496503335 19.912896727361662 M44.3828125 19.5 C44.37692300802632 19.64239478745055, 44.371033516052634 19.7847895749011, 44.36573496503335 19.912896727361662 M44.36573496503335 19.912896727361662 C44.353419693982595 20.011695635455798, 44.34110442293184 20.11049454354993, 44.31461901701361 20.32297295140367 M44.36573496503335 19.912896727361662 C44.35222421164479 20.021286358155646, 44.33871345825623 20.12967598894963, 44.31461901701361 20.32297295140367 M44.31461901701361 20.32297295140367 C44.295355412290306 20.414845295073054, 44.276091807567 20.50671763874244, 44.22981382969665 20.727427435703994 M44.31461901701361 20.32297295140367 C44.281786431689305 20.479558730949876, 44.248953846365005 20.636144510496084, 44.22981382969665 20.727427435703994 M44.22981382969665 20.727427435703994 C44.19569280749299 20.842037928975984, 44.16157178528933 20.956648422247973, 44.111898708503176 21.123497346023417 M44.22981382969665 20.727427435703994 C44.188237109346 20.8670811775989, 44.146660388995336 21.006734919493812, 44.111898708503176 21.123497346023417 M44.111898708503176 21.123497346023417 C44.067051848234236 21.238429998776056, 44.02220498796529 21.35336265152869, 43.96167913327529 21.508477123264846 M44.111898708503176 21.123497346023417 C44.05307157426524 21.274258370346082, 43.99424444002731 21.425019394668748, 43.96167913327529 21.508477123264846 M43.96167913327529 21.508477123264846 C43.9086536204082 21.61694254348819, 43.855628107541115 21.72540796371153, 43.78018125603245 21.879736965185366 M43.96167913327529 21.508477123264846 C43.91922107690164 21.595326465730942, 43.876763020527996 21.682175808197034, 43.78018125603245 21.879736965185366 M43.78018125603245 21.879736965185366 C43.73215008381406 21.960343672688566, 43.684118911595675 22.040950380191763, 43.568644891312644 22.234740790612133 M43.78018125603245 21.879736965185366 C43.735441214028654 21.95482044353737, 43.69070117202486 22.02990392188937, 43.568644891312644 22.234740790612133 M43.568644891312644 22.234740790612133 C43.501370556480545 22.32896435909238, 43.434096221648446 22.42318792757263, 43.32851504698197 22.57106356344834 M43.568644891312644 22.234740790612133 C43.49898888018559 22.332300104292027, 43.429332869058534 22.429859417971926, 43.32851504698197 22.57106356344834 M43.32851504698197 22.57106356344834 C43.24729291379556 22.666962354888796, 43.166070780609154 22.762861146329247, 43.06143205336566 22.886407858128706 M43.32851504698197 22.57106356344834 C43.26057907975272 22.65127540838561, 43.192643112523484 22.731487253322886, 43.06143205336566 22.886407858128706 M43.06143205336566 22.886407858128706 C42.95105044615848 22.996789465335883, 42.8406688389513 23.107171072543057, 42.769220358128706 23.178619553365657 M43.06143205336566 22.886407858128706 C42.979572039137494 22.96826787235687, 42.89771202490933 23.050127886585027, 42.769220358128706 23.178619553365657 M42.769220358128706 23.178619553365657 C42.689900638894336 23.2457999286675, 42.61058091965996 23.31298030396934, 42.45387606344834 23.44570254698197 M42.769220358128706 23.178619553365657 C42.67030935921524 23.262392896143794, 42.57139836030177 23.346166238921935, 42.45387606344834 23.44570254698197 M42.45387606344834 23.44570254698197 C42.386085195089024 23.49410429667286, 42.318294326729706 23.54250604636375, 42.117553290612136 23.685832391312644 M42.45387606344834 23.44570254698197 C42.38343532986746 23.495996264076037, 42.31299459628657 23.5462899811701, 42.117553290612136 23.685832391312644 M42.117553290612136 23.685832391312644 C41.975613421898096 23.770410194947516, 41.83367355318406 23.854987998582388, 41.762549465185366 23.897368756032446 M42.117553290612136 23.685832391312644 C41.98932404459805 23.7622404371132, 41.86109479858396 23.838648482913754, 41.762549465185366 23.897368756032446 M41.762549465185366 23.897368756032446 C41.67265290798826 23.9413165049145, 41.58275635079115 23.985264253796558, 41.391289623264846 24.078866633275286 M41.762549465185366 23.897368756032446 C41.64720992480631 23.953754821470262, 41.53187038442726 24.010140886908076, 41.391289623264846 24.078866633275286 M41.391289623264846 24.078866633275286 C41.258948707449235 24.130506218869996, 41.12660779163362 24.182145804464707, 41.00630984602342 24.229086208503173 M41.391289623264846 24.078866633275286 C41.288206814612884 24.1190896700279, 41.18512400596092 24.159312706780515, 41.00630984602342 24.229086208503173 M41.00630984602342 24.229086208503173 C40.88641865506261 24.264779362524322, 40.766527464101806 24.300472516545472, 40.610239935703994 24.347001329696653 M41.00630984602342 24.229086208503173 C40.85455963051796 24.274264205079668, 40.7028094150125 24.31944220165616, 40.610239935703994 24.347001329696653 M40.610239935703994 24.347001329696653 C40.49779063012815 24.37057946961892, 40.38534132455231 24.394157609541185, 40.20578545140367 24.431806517013612 M40.610239935703994 24.347001329696653 C40.4908285067578 24.37203927337797, 40.37141707781161 24.397077217059287, 40.20578545140367 24.431806517013612 M40.20578545140367 24.431806517013612 C40.10611272934909 24.444230708860943, 40.006440007294515 24.456654900708276, 39.79570922736166 24.482922465033347 M40.20578545140367 24.431806517013612 C40.08809695335141 24.44647637299713, 39.97040845529916 24.461146228980642, 39.79570922736166 24.482922465033347 M39.79570922736166 24.482922465033347 C39.64747074277011 24.48905365410862, 39.49923225817856 24.495184843183893, 39.3828125 24.5 M39.79570922736166 24.482922465033347 C39.6343812848489 24.489595038092872, 39.47305334233614 24.496267611152398, 39.3828125 24.5 M39.3828125 24.5 C39.3828125 24.5, 39.3828125 24.5, 39.3828125 24.5 M39.3828125 24.5 C39.3828125 24.5, 39.3828125 24.5, 39.3828125 24.5 M39.3828125 24.5 C9.620591942785602 24.5, -20.141628614428797 24.5, -39.3828125 24.5 M39.3828125 24.5 C22.307432917784265 24.5, 5.23205333556853 24.5, -39.3828125 24.5 M-39.3828125 24.5 C-39.3828125 24.5, -39.3828125 24.5, -39.3828125 24.5 M-39.3828125 24.5 C-39.3828125 24.5, -39.3828125 24.5, -39.3828125 24.5 M-39.3828125 24.5 C-39.49969396624286 24.4951657467971, -39.61657543248571 24.490331493594194, -39.79570922736166 24.482922465033347 M-39.3828125 24.5 C-39.53283462658898 24.49379503894602, -39.682856753177965 24.48759007789204, -39.79570922736166 24.482922465033347 M-39.79570922736166 24.482922465033347 C-39.89133155374271 24.471003154480197, -39.98695388012376 24.459083843927047, -40.20578545140367 24.431806517013612 M-39.79570922736166 24.482922465033347 C-39.93524119658639 24.465529823207685, -40.074773165811116 24.448137181382023, -40.20578545140367 24.431806517013612 M-40.20578545140367 24.431806517013612 C-40.31260181589477 24.40940948063298, -40.419418180385875 24.387012444252345, -40.610239935703994 24.347001329696653 M-40.20578545140367 24.431806517013612 C-40.32933462190375 24.4059009801638, -40.45288379240382 24.379995443313987, -40.610239935703994 24.347001329696653 M-40.610239935703994 24.347001329696653 C-40.74211245922428 24.307741178425772, -40.87398498274457 24.26848102715489, -41.00630984602342 24.229086208503173 M-40.610239935703994 24.347001329696653 C-40.752663623996554 24.304599960573974, -40.895087312289114 24.2621985914513, -41.00630984602342 24.229086208503173 M-41.00630984602342 24.229086208503173 C-41.11829734274019 24.18538855168553, -41.230284839456964 24.14169089486789, -41.391289623264846 24.078866633275286 M-41.00630984602342 24.229086208503173 C-41.15500023686606 24.171067037956345, -41.3036906277087 24.11304786740952, -41.391289623264846 24.078866633275286 M-41.391289623264846 24.078866633275286 C-41.46986721849083 24.040452387719967, -41.54844481371682 24.00203814216465, -41.762549465185366 23.897368756032446 M-41.391289623264846 24.078866633275286 C-41.47887309227703 24.036049684302178, -41.566456561289215 23.993232735329066, -41.762549465185366 23.897368756032446 M-41.762549465185366 23.897368756032446 C-41.84548275628747 23.847951240903143, -41.92841604738957 23.798533725773844, -42.117553290612136 23.685832391312644 M-41.762549465185366 23.897368756032446 C-41.85845928128523 23.840218910353123, -41.95436909738509 23.783069064673796, -42.117553290612136 23.685832391312644 M-42.117553290612136 23.685832391312644 C-42.2499357485529 23.591313133073445, -42.38231820649367 23.49679387483425, -42.45387606344834 23.44570254698197 M-42.117553290612136 23.685832391312644 C-42.234375351514764 23.602423043017936, -42.35119741241739 23.519013694723228, -42.45387606344834 23.44570254698197 M-42.45387606344834 23.44570254698197 C-42.55904065527225 23.356632681185808, -42.66420524709615 23.267562815389642, -42.769220358128706 23.17861955336566 M-42.45387606344834 23.44570254698197 C-42.537027804961845 23.375276614366484, -42.620179546475356 23.304850681751, -42.769220358128706 23.17861955336566 M-42.769220358128706 23.17861955336566 C-42.84944346174292 23.09839644975144, -42.929666565357145 23.01817334613722, -43.06143205336566 22.886407858128706 M-42.769220358128706 23.17861955336566 C-42.87391676783137 23.073923143663, -42.97861317753403 22.969226733960333, -43.06143205336566 22.886407858128706 M-43.06143205336566 22.886407858128706 C-43.14904304633844 22.78296575419251, -43.23665403931122 22.679523650256318, -43.32851504698197 22.57106356344834 M-43.06143205336566 22.886407858128706 C-43.13527724753334 22.799219002129156, -43.20912244170101 22.712030146129607, -43.32851504698197 22.57106356344834 M-43.32851504698197 22.57106356344834 C-43.38400020922941 22.49335175852738, -43.43948537147685 22.41563995360642, -43.568644891312644 22.234740790612133 M-43.32851504698197 22.57106356344834 C-43.397190169301396 22.474878070022005, -43.46586529162082 22.37869257659567, -43.568644891312644 22.234740790612133 M-43.568644891312644 22.234740790612133 C-43.63604622861735 22.12162675173874, -43.70344756592206 22.00851271286535, -43.78018125603244 21.87973696518537 M-43.568644891312644 22.234740790612133 C-43.62108228532001 22.146739488837465, -43.67351967932736 22.058738187062797, -43.78018125603244 21.87973696518537 M-43.78018125603244 21.87973696518537 C-43.84085215781161 21.755632651978598, -43.90152305959078 21.631528338771822, -43.96167913327528 21.50847712326485 M-43.78018125603244 21.87973696518537 C-43.83624261469784 21.76506162312549, -43.892303973363234 21.650386281065614, -43.96167913327528 21.50847712326485 M-43.96167913327528 21.50847712326485 C-44.00989203171764 21.38491805398679, -44.058104930160006 21.261358984708732, -44.111898708503176 21.123497346023417 M-43.96167913327528 21.50847712326485 C-44.01160946993321 21.380516637056594, -44.06153980659114 21.252556150848335, -44.111898708503176 21.123497346023417 M-44.111898708503176 21.123497346023417 C-44.15891355992806 20.965577243842617, -44.20592841135295 20.807657141661817, -44.22981382969665 20.727427435703994 M-44.111898708503176 21.123497346023417 C-44.14716297900283 21.005046749417062, -44.18242724950249 20.886596152810704, -44.22981382969665 20.727427435703994 M-44.22981382969665 20.727427435703994 C-44.26115277429561 20.57796515542019, -44.29249171889457 20.428502875136385, -44.31461901701361 20.32297295140367 M-44.22981382969665 20.727427435703994 C-44.26162343849362 20.575720454930657, -44.29343304729059 20.424013474157316, -44.31461901701361 20.32297295140367 M-44.31461901701361 20.32297295140367 C-44.32633002372891 20.229021736575653, -44.33804103044421 20.135070521747636, -44.36573496503335 19.912896727361662 M-44.31461901701361 20.32297295140367 C-44.32895302808196 20.20797875953196, -44.34328703915031 20.09298456766025, -44.36573496503335 19.912896727361662 M-44.36573496503335 19.912896727361662 C-44.37096209115327 19.786516469752186, -44.37618921727318 19.660136212142707, -44.3828125 19.5 M-44.36573496503335 19.912896727361662 C-44.37251400185172 19.74899472848212, -44.37929303867009 19.585092729602582, -44.3828125 19.5 M-44.3828125 19.5 C-44.3828125 19.5, -44.3828125 19.5, -44.3828125 19.5 M-44.3828125 19.5 C-44.3828125 19.5, -44.3828125 19.5, -44.3828125 19.5 M-44.3828125 19.5 C-44.3828125 10.709265183260642, -44.3828125 1.918530366521285, -44.3828125 -19.5 M-44.3828125 19.5 C-44.3828125 10.609149860153563, -44.3828125 1.718299720307126, -44.3828125 -19.5 M-44.3828125 -19.5 C-44.3828125 -19.5, -44.3828125 -19.5, -44.3828125 -19.5 M-44.3828125 -19.5 C-44.3828125 -19.5, -44.3828125 -19.5, -44.3828125 -19.5 M-44.3828125 -19.5 C-44.377668317737715 -19.62437486002491, -44.37252413547544 -19.74874972004982, -44.36573496503335 -19.91289672736166 M-44.3828125 -19.5 C-44.377535993014114 -19.62757417687197, -44.37225948602823 -19.755148353743937, -44.36573496503335 -19.91289672736166 M-44.36573496503335 -19.91289672736166 C-44.3542251041552 -20.005234255491583, -44.34271524327705 -20.097571783621508, -44.31461901701361 -20.32297295140367 M-44.36573496503335 -19.91289672736166 C-44.353522900181716 -20.01086766668922, -44.34131083533009 -20.10883860601678, -44.31461901701361 -20.32297295140367 M-44.31461901701361 -20.32297295140367 C-44.2860445723051 -20.459250727143417, -44.2574701275966 -20.595528502883163, -44.22981382969665 -20.727427435703994 M-44.31461901701361 -20.32297295140367 C-44.28759563911994 -20.451853350301768, -44.26057226122627 -20.58073374919986, -44.22981382969665 -20.727427435703994 M-44.22981382969665 -20.727427435703994 C-44.19593563990481 -20.84122226928282, -44.16205745011297 -20.955017102861646, -44.111898708503176 -21.123497346023417 M-44.22981382969665 -20.727427435703994 C-44.19851940920227 -20.832543541197982, -44.16722498870788 -20.93765964669197, -44.111898708503176 -21.123497346023417 M-44.111898708503176 -21.123497346023417 C-44.05666254121207 -21.26505551077752, -44.001426373920964 -21.40661367553162, -43.96167913327529 -21.508477123264846 M-44.111898708503176 -21.123497346023417 C-44.07974356455298 -21.205903917446182, -44.04758842060277 -21.28831048886895, -43.96167913327529 -21.508477123264846 M-43.96167913327529 -21.508477123264846 C-43.90214806128261 -21.630249877376958, -43.84261698928992 -21.752022631489073, -43.78018125603245 -21.879736965185366 M-43.96167913327529 -21.508477123264846 C-43.892820295664215 -21.649330126917967, -43.823961458053134 -21.790183130571087, -43.78018125603245 -21.879736965185366 M-43.78018125603245 -21.879736965185366 C-43.73551702720341 -21.95469321261379, -43.69085279837436 -22.029649460042215, -43.568644891312644 -22.234740790612133 M-43.78018125603245 -21.879736965185366 C-43.704477132422774 -22.006784877338024, -43.628773008813106 -22.133832789490686, -43.568644891312644 -22.234740790612133 M-43.568644891312644 -22.234740790612133 C-43.50518469227228 -22.323622329537393, -43.44172449323191 -22.412503868462654, -43.32851504698197 -22.57106356344834 M-43.568644891312644 -22.234740790612133 C-43.49744402624076 -22.334463806866363, -43.42624316116887 -22.43418682312059, -43.32851504698197 -22.57106356344834 M-43.32851504698197 -22.57106356344834 C-43.22373880384829 -22.694772639952532, -43.11896256071461 -22.818481716456724, -43.06143205336566 -22.886407858128706 M-43.32851504698197 -22.57106356344834 C-43.223586485682745 -22.694952481670757, -43.11865792438352 -22.818841399893174, -43.06143205336566 -22.886407858128706 M-43.06143205336566 -22.886407858128706 C-42.95570102674129 -22.992138884753075, -42.84997000011692 -23.097869911377444, -42.769220358128706 -23.178619553365657 M-43.06143205336566 -22.886407858128706 C-42.98528089459228 -22.96255901690208, -42.90912973581891 -23.038710175675455, -42.769220358128706 -23.178619553365657 M-42.769220358128706 -23.178619553365657 C-42.70581934296757 -23.23231747406123, -42.642418327806446 -23.286015394756802, -42.45387606344834 -23.445702546981966 M-42.769220358128706 -23.178619553365657 C-42.64565615201355 -23.283273097538732, -42.522091945898396 -23.387926641711804, -42.45387606344834 -23.445702546981966 M-42.45387606344834 -23.445702546981966 C-42.35760703683941 -23.514437310847413, -42.261338010230475 -23.58317207471286, -42.117553290612136 -23.685832391312644 M-42.45387606344834 -23.445702546981966 C-42.36847674474955 -23.506676488568356, -42.28307742605076 -23.567650430154742, -42.117553290612136 -23.685832391312644 M-42.117553290612136 -23.685832391312644 C-42.00215543307983 -23.75459458915514, -41.88675757554752 -23.823356786997635, -41.762549465185366 -23.897368756032446 M-42.117553290612136 -23.685832391312644 C-41.97835045013806 -23.768779280116327, -41.83914760966398 -23.851726168920013, -41.762549465185366 -23.897368756032446 M-41.762549465185366 -23.897368756032446 C-41.658575576558164 -23.94819849290057, -41.554601687930955 -23.999028229768694, -41.391289623264846 -24.078866633275286 M-41.762549465185366 -23.897368756032446 C-41.68440289159004 -23.93557228795225, -41.60625631799472 -23.973775819872056, -41.391289623264846 -24.078866633275286 M-41.391289623264846 -24.078866633275286 C-41.30944312216136 -24.110803237108748, -41.22759662105788 -24.142739840942212, -41.00630984602342 -24.229086208503173 M-41.391289623264846 -24.078866633275286 C-41.24510398931572 -24.135908444649406, -41.0989183553666 -24.19295025602353, -41.00630984602342 -24.229086208503173 M-41.00630984602342 -24.229086208503173 C-40.90876683853549 -24.25812602003604, -40.811223831047556 -24.28716583156891, -40.610239935703994 -24.347001329696653 M-41.00630984602342 -24.229086208503173 C-40.886915802128016 -24.26463135543027, -40.76752175823261 -24.300176502357367, -40.610239935703994 -24.347001329696653 M-40.610239935703994 -24.347001329696653 C-40.51848890495461 -24.36623949777553, -40.42673787420522 -24.38547766585441, -40.20578545140367 -24.431806517013612 M-40.610239935703994 -24.347001329696653 C-40.46183768677317 -24.37811800909411, -40.31343543784235 -24.409234688491562, -40.20578545140367 -24.431806517013612 M-40.20578545140367 -24.431806517013612 C-40.08410640442045 -24.446973794402627, -39.96242735743724 -24.462141071791642, -39.79570922736166 -24.482922465033347 M-40.20578545140367 -24.431806517013612 C-40.06421901205751 -24.449452755275445, -39.92265257271135 -24.467098993537274, -39.79570922736166 -24.482922465033347 M-39.79570922736166 -24.482922465033347 C-39.70456525501335 -24.48669220761456, -39.61342128266503 -24.49046195019577, -39.3828125 -24.5 M-39.79570922736166 -24.482922465033347 C-39.66409289499304 -24.488366156807245, -39.53247656262441 -24.49380984858114, -39.3828125 -24.5 M-39.3828125 -24.5 C-39.3828125 -24.5, -39.3828125 -24.5, -39.3828125 -24.5 M-39.3828125 -24.5 C-39.3828125 -24.5, -39.3828125 -24.5, -39.3828125 -24.5" stroke="#999" stroke-width="1.3" fill="none" stroke-dasharray="0 0" style=""/></g><g class="label" style="" transform="translate(0, -9.5)"><rect/><g><rect class="background" style="stroke: none"/><text y="-10.1" style=""><tspan class="text-outer-tspan" x="0" y="-0.1em" dy="1.1em"><tspan font-style="normal" class="text-inner-tspan" font-weight="normal">Axiomas</tspan></tspan></text></g></g></g><g class="node default" id="flowchart-$$T_1$$-1" transform="translate(245.3984375, 67.5)"><rect class="basic label-container" style="" x="-59.8203125" y="-24.5" width="119.640625" height="49"/><g class="label" style="" transform="translate(0, -9.5)"><rect/><g><rect class="background" style="stroke: none"/><text y="-10.1" style=""><tspan class="text-outer-tspan" x="0" y="-0.1em" dy="1.1em"><tspan font-style="normal" class="text-inner-tspan" font-weight="normal">$$T_1$$</tspan></tspan></text></g></g></g><g class="node default" id="flowchart-$$T_2$$-2" transform="translate(245.3984375, 166.5)"><rect class="basic label-container" style="" x="-59.8203125" y="-24.5" width="119.640625" height="49"/><g class="label" style="" transform="translate(0, -9.5)"><rect/><g><rect class="background" style="stroke: none"/><text y="-10.1" style=""><tspan class="text-outer-tspan" x="0" y="-0.1em" dy="1.1em"><tspan font-style="normal" class="text-inner-tspan" font-weight="normal">$$T_2$$</tspan></tspan></text></g></g></g><g class="node default" id="flowchart-$$T_3$$-3" transform="translate(245.3984375, 265.5)"><rect class="basic label-container" style="" x="-59.8203125" y="-24.5" width="119.640625" height="49"/><g class="label" style="" transform="translate(0, -9.5)"><rect/><g><rect class="background" style="stroke: none"/><text y="-10.1" style=""><tspan class="text-outer-tspan" x="0" y="-0.1em" dy="1.1em"><tspan font-style="normal" class="text-inner-tspan" font-weight="normal">$$T_3$$</tspan></tspan></text></g></g></g><g class="node default" id="flowchart-$$O_1$$-5" transform="translate(465.78125, 67.5)"><rect class="basic label-container" style="" x="-60.5625" y="-24.5" width="121.125" height="49"/><g class="label" style="" transform="translate(0, -9.5)"><rect/><g><rect class="background" style="stroke: none"/><text y="-10.1" style=""><tspan class="text-outer-tspan" x="0" y="-0.1em" dy="1.1em"><tspan font-style="normal" class="text-inner-tspan" font-weight="normal">$$O_1$$</tspan></tspan></text></g></g></g><g class="node default" id="flowchart-$$O_2$$-7" transform="translate(465.78125, 166.5)"><rect class="basic label-container" style="" x="-60.5625" y="-24.5" width="121.125" height="49"/><g class="label" style="" transform="translate(0, -9.5)"><rect/><g><rect class="background" style="stroke: none"/><text y="-10.1" style=""><tspan class="text-outer-tspan" x="0" y="-0.1em" dy="1.1em"><tspan font-style="normal" class="text-inner-tspan" font-weight="normal">$$O_2$$</tspan></tspan></text></g></g></g><g class="node default" id="flowchart-$$O_3$$-9" transform="translate(465.78125, 265.5)"><rect class="basic label-container" style="" x="-60.5625" y="-24.5" width="121.125" height="49"/><g class="label" style="" transform="translate(0, -9.5)"><rect/><g><rect class="background" style="stroke: none"/><text y="-10.1" style=""><tspan class="text-outer-tspan" x="0" y="-0.1em" dy="1.1em"><tspan font-style="normal" class="text-inner-tspan" font-weight="normal">$$O_3$$</tspan></tspan></text></g></g></g><g class="node default" id="flowchart-M-13" transform="translate(615.46875, 166.5)"><circle class="basic label-container" style="" r="30.671875" cx="0" cy="0"/><g class="label" style="" transform="translate(0, -9.5)"><rect/><g><rect class="background" style="stroke: none"/><text y="-10.1" style=""><tspan class="text-outer-tspan" x="0" y="-0.1em" dy="1.1em"><tspan font-style="normal" class="text-inner-tspan" font-weight="normal">Mundo</tspan></tspan></text></g></g></g></g></g></g></svg>