<svg id="my-svg" width="100%" xmlns="http://www.w3.org/2000/svg" xmlns:xlink="http://www.w3.org/1999/xlink" class="flowchart" style="max-width: 100.516px; background-color: white;" viewBox="0 0 100.515625 164" role="graphics-document document" aria-roledescription="flowchart-v2"><style>#my-svg{font-family:"trebuchet ms",verdana,arial,sans-serif;font-size:16px;fill:#000000;}@keyframes edge-animation-frame{from{stroke-dashoffset:0;}}@keyframes dash{to{stroke-dashoffset:0;}}#my-svg .edge-animation-slow{stroke-dasharray:9,5!important;stroke-dashoffset:900;animation:dash 50s linear infinite;stroke-linecap:round;}#my-svg .edge-animation-fast{stroke-dasharray:9,5!important;stroke-dashoffset:900;animation:dash 20s linear infinite;stroke-linecap:round;}#my-svg .error-icon{fill:#552222;}#my-svg .error-text{fill:#552222;stroke:#552222;}#my-svg .edge-thickness-normal{stroke-width:1px;}#my-svg .edge-thickness-thick{stroke-width:3.5px;}#my-svg .edge-pattern-solid{stroke-dasharray:0;}#my-svg .edge-thickness-invisible{stroke-width:0;fill:none;}#my-svg .edge-pattern-dashed{stroke-dasharray:3;}#my-svg .edge-pattern-dotted{stroke-dasharray:2;}#my-svg .marker{fill:#666;stroke:#666;}#my-svg .marker.cross{stroke:#666;}#my-svg svg{font-family:"trebuchet ms",verdana,arial,sans-serif;font-size:16px;}#my-svg p{margin:0;}#my-svg .label{font-family:"trebuchet ms",verdana,arial,sans-serif;color:#000000;}#my-svg .cluster-label text{fill:#333;}#my-svg .cluster-label span{color:#333;}#my-svg .cluster-label span p{background-color:transparent;}#my-svg .label text,#my-svg span{fill:#000000;color:#000000;}#my-svg .node rect,#my-svg .node circle,#my-svg .node ellipse,#my-svg .node polygon,#my-svg .node path{fill:#eee;stroke:#999;stroke-width:1px;}#my-svg .rough-node .label text,#my-svg .node .label text,#my-svg .image-shape .label,#my-svg .icon-shape .label{text-anchor:middle;}#my-svg .node .katex path{fill:#000;stroke:#000;stroke-width:1px;}#my-svg .rough-node .label,#my-svg .node .label,#my-svg .image-shape .label,#my-svg .icon-shape .label{text-align:center;}#my-svg .node.clickable{cursor:pointer;}#my-svg .root .anchor path{fill:#666!important;stroke-width:0;stroke:#666;}#my-svg .arrowheadPath{fill:#333333;}#my-svg .edgePath .path{stroke:#666;stroke-width:2.0px;}#my-svg .flowchart-link{stroke:#666;fill:none;}#my-svg .edgeLabel{background-color:white;text-align:center;}#my-svg .edgeLabel p{background-color:white;}#my-svg .edgeLabel rect{opacity:0.5;background-color:white;fill:white;}#my-svg .labelBkg{background-color:rgba(255, 255, 255, 0.5);}#my-svg .cluster rect{fill:hsl(0, 0%, 98.9215686275%);stroke:#707070;stroke-width:1px;}#my-svg .cluster text{fill:#333;}#my-svg .cluster span{color:#333;}#my-svg div.mermaidTooltip{position:absolute;text-align:center;max-width:200px;padding:2px;font-family:"trebuchet ms",verdana,arial,sans-serif;font-size:12px;background:hsl(-160, 0%, 93.3333333333%);border:1px solid #707070;border-radius:2px;pointer-events:none;z-index:100;}#my-svg .flowchartTitleText{text-anchor:middle;font-size:18px;fill:#000000;}#my-svg rect.text{fill:none;stroke-width:0;}#my-svg .icon-shape,#my-svg .image-shape{background-color:white;text-align:center;}#my-svg .icon-shape p,#my-svg .image-shape p{background-color:white;padding:2px;}#my-svg .icon-shape rect,#my-svg .image-shape rect{opacity:0.5;background-color:white;fill:white;}#my-svg .label-icon{display:inline-block;height:1em;overflow:visible;vertical-align:-0.125em;}#my-svg .node .label-icon path{fill:currentColor;stroke:revert;stroke-width:revert;}#my-svg :root{--mermaid-font-family:"trebuchet ms",verdana,arial,sans-serif;}#my-svg .Peach rect{stroke-width:1px!important;stroke-dasharray:none!important;stroke:#FBB35A!important;fill:#FFEFDB!important;color:#8F632D!important;}#my-svg .Peach polygon{stroke-width:1px!important;stroke-dasharray:none!important;stroke:#FBB35A!important;fill:#FFEFDB!important;color:#8F632D!important;}#my-svg .Peach ellipse{stroke-width:1px!important;stroke-dasharray:none!important;stroke:#FBB35A!important;fill:#FFEFDB!important;color:#8F632D!important;}#my-svg .Peach circle{stroke-width:1px!important;stroke-dasharray:none!important;stroke:#FBB35A!important;fill:#FFEFDB!important;color:#8F632D!important;}#my-svg .Peach path{stroke-width:1px!important;stroke-dasharray:none!important;stroke:#FBB35A!important;fill:#FFEFDB!important;color:#8F632D!important;}#my-svg .Peach tspan{fill:#8F632D!important;}#my-svg .Rose rect{stroke-width:1px!important;stroke-dasharray:none!important;stroke:#FF5978!important;fill:#FFDFE5!important;color:#8E2236!important;}#my-svg .Rose polygon{stroke-width:1px!important;stroke-dasharray:none!important;stroke:#FF5978!important;fill:#FFDFE5!important;color:#8E2236!important;}#my-svg .Rose ellipse{stroke-width:1px!important;stroke-dasharray:none!important;stroke:#FF5978!important;fill:#FFDFE5!important;color:#8E2236!important;}#my-svg .Rose circle{stroke-width:1px!important;stroke-dasharray:none!important;stroke:#FF5978!important;fill:#FFDFE5!important;color:#8E2236!important;}#my-svg .Rose path{stroke-width:1px!important;stroke-dasharray:none!important;stroke:#FF5978!important;fill:#FFDFE5!important;color:#8E2236!important;}#my-svg .Rose tspan{fill:#8E2236!important;}</style><g><marker id="my-svg_flowchart-v2-pointEnd" class="marker flowchart-v2" viewBox="0 0 10 10" refX="5" refY="5" markerUnits="userSpaceOnUse" markerWidth="8" markerHeight="8" orient="auto"><path d="M 0 0 L 10 5 L 0 10 z" class="arrowMarkerPath" style="stroke-width: 1; stroke-dasharray: 1, 0;"/></marker><marker id="my-svg_flowchart-v2-pointStart" class="marker flowchart-v2" viewBox="0 0 10 10" refX="4.5" refY="5" markerUnits="userSpaceOnUse" markerWidth="8" markerHeight="8" orient="auto"><path d="M 0 5 L 10 10 L 10 0 z" class="arrowMarkerPath" style="stroke-width: 1; stroke-dasharray: 1, 0;"/></marker><marker id="my-svg_flowchart-v2-circleEnd" class="marker flowchart-v2" viewBox="0 0 10 10" refX="11" refY="5" markerUnits="userSpaceOnUse" markerWidth="11" markerHeight="11" orient="auto"><circle cx="5" cy="5" r="5" class="arrowMarkerPath" style="stroke-width: 1; stroke-dasharray: 1, 0;"/></marker><marker id="my-svg_flowchart-v2-circleStart" class="marker flowchart-v2" viewBox="0 0 10 10" refX="-1" refY="5" markerUnits="userSpaceOnUse" markerWidth="11" markerHeight="11" orient="auto"><circle cx="5" cy="5" r="5" class="arrowMarkerPath" style="stroke-width: 1; stroke-dasharray: 1, 0;"/></marker><marker id="my-svg_flowchart-v2-crossEnd" class="marker cross flowchart-v2" viewBox="0 0 11 11" refX="12" refY="5.2" markerUnits="userSpaceOnUse" markerWidth="11" markerHeight="11" orient="auto"><path d="M 1,1 l 9,9 M 10,1 l -9,9" class="arrowMarkerPath" style="stroke-width: 2; stroke-dasharray: 1, 0;"/></marker><marker id="my-svg_flowchart-v2-crossStart" class="marker cross flowchart-v2" viewBox="0 0 11 11" refX="-1" refY="5.2" markerUnits="userSpaceOnUse" markerWidth="11" markerHeight="11" orient="auto"><path d="M 1,1 l 9,9 M 10,1 l -9,9" class="arrowMarkerPath" style="stroke-width: 2; stroke-dasharray: 1, 0;"/></marker><g class="root"><g class="clusters"/><g class="edgePaths"><path d="M50.758,57.5L50.674,61.583C50.591,65.667,50.424,73.833,50.411,81.5C50.398,89.167,50.539,96.334,50.609,99.917L50.679,103.501" id="L_N_U_0" class="edge-thickness-normal edge-pattern-solid edge-thickness-normal edge-pattern-solid flowchart-link" style=";" data-edge="true" data-et="edge" data-id="L_N_U_0" data-points="W3sieCI6NTAuNzU3ODEyNSwieSI6NTcuNX0seyJ4Ijo1MC4yNTc4MTI1LCJ5Ijo4Mn0seyJ4Ijo1MC43NTc4MTI1LCJ5IjoxMDcuNX1d" marker-end="url(#my-svg_flowchart-v2-pointEnd)"/></g><g class="edgeLabels"><g><rect class="background" style="stroke: none"/></g><g class="edgeLabel"><g class="label" data-id="L_N_U_0" transform="translate(0, 0)"><text y="-10.1"><tspan class="text-outer-tspan" x="0" y="-0.1em" dy="1.1em"/></text></g></g></g><g class="nodes"><g class="node default" id="flowchart-N-0" transform="translate(50.2578125, 32.5)"><g class="basic label-container outer-path"><path d="M-37.2578125 -24.5 C-11.733002346507828 -24.5, 13.791807806984345 -24.5, 37.2578125 -24.5 C37.2578125 -24.5, 37.2578125 -24.5, 37.2578125 -24.5 C37.35324185897084 -24.496053012516995, 37.44867121794168 -24.49210602503399, 37.67070922736166 -24.482922465033347 C37.824339678345844 -24.463772449289074, 37.977970129330025 -24.444622433544804, 38.08078545140367 -24.431806517013612 C38.17691115907983 -24.41165107564286, 38.27303686675599 -24.39149563427211, 38.485239935703994 -24.347001329696653 C38.57663704992627 -24.319791229864624, 38.66803416414855 -24.292581130032595, 38.88130984602342 -24.229086208503173 C39.01369523349941 -24.177429270012734, 39.146080620975404 -24.1257723315223, 39.266289623264846 -24.078866633275286 C39.35248227659258 -24.036729612659247, 39.43867492992032 -23.994592592043208, 39.637549465185366 -23.897368756032446 C39.733188361456364 -23.840380343531088, 39.82882725772736 -23.78339193102973, 39.992553290612136 -23.685832391312644 C40.060426370101496 -23.637371944003117, 40.12829944959085 -23.58891149669359, 40.32887606344834 -23.44570254698197 C40.42398272231574 -23.365151315862036, 40.519089381183136 -23.284600084742106, 40.644220358128706 -23.178619553365657 C40.710182425060616 -23.112657486433747, 40.776144491992525 -23.046695419501837, 40.93643205336566 -22.886407858128706 C40.99739858396217 -22.81442481147435, 41.0583651145587 -22.742441764819993, 41.20351504698197 -22.57106356344834 C41.25207953921103 -22.503044759982295, 41.30064403144009 -22.435025956516245, 41.443644891312644 -22.234740790612136 C41.52811910074418 -22.092974775403274, 41.612593310175704 -21.95120876019441, 41.65518125603245 -21.87973696518537 C41.706987369421974 -21.773765866461286, 41.758793482811505 -21.667794767737202, 41.83667913327529 -21.508477123264846 C41.87345808575027 -21.414220746161444, 41.910237038225254 -21.319964369058045, 41.986898708503176 -21.123497346023417 C42.016209323692685 -21.025044725087138, 42.045519938882194 -20.926592104150863, 42.10481382969665 -20.727427435703994 C42.13089040921503 -20.60306252531236, 42.156966988733394 -20.478697614920726, 42.18961901701361 -20.32297295140367 C42.2094655697862 -20.16375455212659, 42.22931212255879 -20.004536152849507, 42.24073496503335 -19.912896727361662 C42.245168212502584 -19.805710685862902, 42.24960145997182 -19.698524644364138, 42.2578125 -19.5 C42.2578125 -19.5, 42.2578125 -19.5, 42.2578125 -19.5 C42.2578125 -7.769016756088691, 42.2578125 3.961966487822618, 42.2578125 19.5 C42.2578125 19.5, 42.2578125 19.5, 42.2578125 19.5 C42.251291094058324 19.657673058575003, 42.244769688116655 19.815346117150003, 42.24073496503335 19.912896727361662 C42.225716468069876 20.033382187656535, 42.210697971106406 20.153867647951408, 42.18961901701361 20.32297295140367 C42.16491525183286 20.44079060999942, 42.140211486652106 20.558608268595172, 42.10481382969665 20.727427435703994 C42.07109400553759 20.84069032849918, 42.03737418137852 20.953953221294366, 41.986898708503176 21.123497346023417 C41.941525172161114 21.23977975387289, 41.896151635819045 21.356062161722367, 41.83667913327529 21.508477123264846 C41.76923653596219 21.64643316108488, 41.7017939386491 21.78438919890491, 41.65518125603245 21.879736965185366 C41.57835691326065 22.00866484766085, 41.50153257048885 22.13759273013633, 41.443644891312644 22.234740790612133 C41.383798402997584 22.31856101275376, 41.32395191468252 22.40238123489539, 41.20351504698197 22.57106356344834 C41.14261782157634 22.64296478161844, 41.08172059617071 22.714865999788536, 40.93643205336566 22.886407858128706 C40.85900878597159 22.963831125522773, 40.78158551857752 23.041254392916837, 40.644220358128706 23.178619553365657 C40.53670855127976 23.269677408880124, 40.429196744430804 23.36073526439459, 40.32887606344834 23.44570254698197 C40.21881429695099 23.524285137845183, 40.108752530453636 23.602867728708393, 39.992553290612136 23.685832391312644 C39.92114504308138 23.728382471091383, 39.84973679555063 23.770932550870125, 39.637549465185366 23.897368756032446 C39.514807821420895 23.95737348931388, 39.39206617765643 24.017378222595312, 39.266289623264846 24.078866633275286 C39.17817161792161 24.113250385656876, 39.09005361257838 24.14763413803847, 38.88130984602342 24.229086208503173 C38.729129526538124 24.27439225258236, 38.57694920705282 24.319698296661546, 38.485239935703994 24.347001329696653 C38.34476899172098 24.376454989328288, 38.20429804773797 24.40590864895992, 38.08078545140367 24.431806517013612 C37.95938093712989 24.44693957393608, 37.83797642285612 24.462072630858554, 37.67070922736166 24.482922465033347 C37.508441498993136 24.489633907923388, 37.34617377062461 24.49634535081343, 37.2578125 24.5 C37.2578125 24.5, 37.2578125 24.5, 37.2578125 24.5 C20.944073290279054 24.5, 4.630334080558107 24.5, -37.2578125 24.5 C-37.2578125 24.5, -37.2578125 24.5, -37.2578125 24.5 C-37.35720500652689 24.49588909552158, -37.45659751305379 24.49177819104316, -37.67070922736166 24.482922465033347 C-37.75435623473233 24.47249587643813, -37.838003242102985 24.46206928784292, -38.08078545140367 24.431806517013612 C-38.20716090896388 24.40530837008566, -38.333536366524086 24.378810223157704, -38.485239935703994 24.347001329696653 C-38.57429888429683 24.320487331932423, -38.663357832889666 24.293973334168193, -38.88130984602342 24.229086208503173 C-39.010056383314314 24.178849153761018, -39.138802920605215 24.128612099018866, -39.266289623264846 24.078866633275286 C-39.34637560508825 24.039714982445872, -39.42646158691164 24.00056333161646, -39.637549465185366 23.897368756032446 C-39.779038134386674 23.81305980895024, -39.92052680358798 23.72875086186803, -39.992553290612136 23.685832391312644 C-40.121851979782384 23.593514901655965, -40.25115066895263 23.501197411999282, -40.32887606344834 23.44570254698197 C-40.402638336709295 23.383229088318483, -40.476400609970256 23.320755629654993, -40.644220358128706 23.17861955336566 C-40.75394409736645 23.068895814127913, -40.8636678366042 22.959172074890162, -40.93643205336566 22.886407858128706 C-41.036275971204766 22.768522367095425, -41.136119889043876 22.650636876062144, -41.20351504698197 22.57106356344834 C-41.269933986450965 22.478038050716606, -41.33635292591996 22.38501253798487, -41.443644891312644 22.234740790612133 C-41.512118280864286 22.11982761592953, -41.58059167041592 22.004914441246928, -41.65518125603244 21.87973696518537 C-41.70823441632749 21.771214991244204, -41.76128757662254 21.662693017303038, -41.83667913327528 21.50847712326485 C-41.87807530073605 21.402387838273068, -41.919471468196825 21.29629855328129, -41.986898708503176 21.123497346023417 C-42.01797088687923 21.019127738645917, -42.04904306525528 20.91475813126842, -42.10481382969665 20.727427435703994 C-42.13713153113788 20.573297249995775, -42.169449232579105 20.419167064287556, -42.18961901701361 20.32297295140367 C-42.202547454368116 20.219254934258608, -42.21547589172261 20.11553691711354, -42.24073496503335 19.912896727361662 C-42.24422980572399 19.828399269933847, -42.24772464641463 19.743901812506028, -42.2578125 19.5 C-42.2578125 19.5, -42.2578125 19.5, -42.2578125 19.5 C-42.2578125 6.694996491704655, -42.2578125 -6.110007016590689, -42.2578125 -19.5 C-42.2578125 -19.5, -42.2578125 -19.5, -42.2578125 -19.5 C-42.25236858151532 -19.631621813730035, -42.24692466303063 -19.763243627460074, -42.24073496503335 -19.91289672736166 C-42.22480642472808 -20.040682984213692, -42.20887788442281 -20.168469241065726, -42.18961901701361 -20.32297295140367 C-42.15579720336267 -20.48427657717327, -42.12197538971172 -20.645580202942867, -42.10481382969665 -20.727427435703994 C-42.06947602821071 -20.846125018539514, -42.034138226724764 -20.964822601375033, -41.986898708503176 -21.123497346023417 C-41.929065274359154 -21.27171173526062, -41.87123184021513 -21.419926124497824, -41.83667913327529 -21.508477123264846 C-41.789352765797055 -21.605284755263387, -41.74202639831882 -21.70209238726193, -41.65518125603245 -21.879736965185366 C-41.602699027246125 -21.96781350942751, -41.55021679845981 -22.05589005366966, -41.443644891312644 -22.234740790612133 C-41.391457439968 -22.307833864038333, -41.339269988623364 -22.380926937464533, -41.20351504698197 -22.57106356344834 C-41.13775633927496 -22.64870472292534, -41.07199763156795 -22.72634588240234, -40.93643205336566 -22.886407858128706 C-40.848407696945046 -22.974432214549314, -40.76038334052444 -23.062456570969925, -40.644220358128706 -23.178619553365657 C-40.55539172871522 -23.253853564770985, -40.46656309930174 -23.32908757617631, -40.32887606344834 -23.445702546981966 C-40.25274574609561 -23.500058548808994, -40.176615428742885 -23.55441455063602, -39.992553290612136 -23.685832391312644 C-39.88346000620941 -23.750837878986346, -39.774366721806686 -23.815843366660044, -39.637549465185366 -23.897368756032446 C-39.50988939380398 -23.95977796206058, -39.3822293224226 -24.022187168088713, -39.266289623264846 -24.078866633275286 C-39.144601555827805 -24.1263494645338, -39.022913488390756 -24.173832295792316, -38.88130984602342 -24.229086208503173 C-38.76061503235614 -24.26501861136994, -38.639920218688864 -24.300951014236706, -38.485239935703994 -24.347001329696653 C-38.374657253192765 -24.370188079920474, -38.26407457068153 -24.3933748301443, -38.08078545140367 -24.431806517013612 C-37.954530641138255 -24.447544162700936, -37.82827583087285 -24.46328180838826, -37.67070922736166 -24.482922465033347 C-37.51119967444692 -24.489519828942775, -37.35169012153218 -24.496117192852203, -37.2578125 -24.5 C-37.2578125 -24.5, -37.2578125 -24.5, -37.2578125 -24.5" stroke="none" stroke-width="0" fill="#eee" style=""/><path d="M-37.2578125 -24.5 C-16.22729111915188 -24.5, 4.803230261696243 -24.5, 37.2578125 -24.5 M-37.2578125 -24.5 C-18.962301483295327 -24.5, -0.6667904665906548 -24.5, 37.2578125 -24.5 M37.2578125 -24.5 C37.2578125 -24.5, 37.2578125 -24.5, 37.2578125 -24.5 M37.2578125 -24.5 C37.2578125 -24.5, 37.2578125 -24.5, 37.2578125 -24.5 M37.2578125 -24.5 C37.3767245766347 -24.495081760130038, 37.4956366532694 -24.49016352026008, 37.67070922736166 -24.482922465033347 M37.2578125 -24.5 C37.37099616453705 -24.495318689006968, 37.4841798290741 -24.490637378013936, 37.67070922736166 -24.482922465033347 M37.67070922736166 -24.482922465033347 C37.822664734368914 -24.46398123083807, 37.974620241376165 -24.44503999664279, 38.08078545140367 -24.431806517013612 M37.67070922736166 -24.482922465033347 C37.75746327824855 -24.47210858386773, 37.84421732913543 -24.461294702702112, 38.08078545140367 -24.431806517013612 M38.08078545140367 -24.431806517013612 C38.16579377101264 -24.41398214678711, 38.250802090621605 -24.396157776560607, 38.485239935703994 -24.347001329696653 M38.08078545140367 -24.431806517013612 C38.17827310006994 -24.411365506647428, 38.27576074873621 -24.390924496281244, 38.485239935703994 -24.347001329696653 M38.485239935703994 -24.347001329696653 C38.63800513940473 -24.301521158042128, 38.79077034310547 -24.256040986387607, 38.88130984602342 -24.229086208503173 M38.485239935703994 -24.347001329696653 C38.5690883007172 -24.322038589875206, 38.65293666573041 -24.297075850053762, 38.88130984602342 -24.229086208503173 M38.88130984602342 -24.229086208503173 C39.02892697688062 -24.17148582530221, 39.176544107737826 -24.113885442101243, 39.266289623264846 -24.078866633275286 M38.88130984602342 -24.229086208503173 C39.026411400442626 -24.17246740627427, 39.17151295486183 -24.115848604045368, 39.266289623264846 -24.078866633275286 M39.266289623264846 -24.078866633275286 C39.37279625295434 -24.02679871474972, 39.47930288264383 -23.974730796224154, 39.637549465185366 -23.897368756032446 M39.266289623264846 -24.078866633275286 C39.40701798175624 -24.01006873097072, 39.547746340247635 -23.94127082866615, 39.637549465185366 -23.897368756032446 M39.637549465185366 -23.897368756032446 C39.759645565708524 -23.824615271700033, 39.88174166623169 -23.75186178736762, 39.992553290612136 -23.685832391312644 M39.637549465185366 -23.897368756032446 C39.77682590469828 -23.81437801172072, 39.91610234421118 -23.73138726740899, 39.992553290612136 -23.685832391312644 M39.992553290612136 -23.685832391312644 C40.08050340944102 -23.623037213438888, 40.16845352826991 -23.560242035565132, 40.32887606344834 -23.44570254698197 M39.992553290612136 -23.685832391312644 C40.09681403178135 -23.611391652924233, 40.20107477295057 -23.536950914535822, 40.32887606344834 -23.44570254698197 M40.32887606344834 -23.44570254698197 C40.40011571173026 -23.385365642689493, 40.471355360012176 -23.32502873839702, 40.644220358128706 -23.178619553365657 M40.32887606344834 -23.44570254698197 C40.405824702385374 -23.380530374253, 40.482773341322414 -23.31535820152403, 40.644220358128706 -23.178619553365657 M40.644220358128706 -23.178619553365657 C40.740696607303796 -23.082143304190566, 40.83717285647889 -22.985667055015472, 40.93643205336566 -22.886407858128706 M40.644220358128706 -23.178619553365657 C40.75106837268066 -23.0717715388137, 40.85791638723262 -22.964923524261742, 40.93643205336566 -22.886407858128706 M40.93643205336566 -22.886407858128706 C41.02003056952311 -22.787703276616234, 41.10362908568056 -22.688998695103763, 41.20351504698197 -22.57106356344834 M40.93643205336566 -22.886407858128706 C41.01436761146175 -22.794389518564785, 41.09230316955785 -22.702371179000867, 41.20351504698197 -22.57106356344834 M41.20351504698197 -22.57106356344834 C41.25882983022587 -22.493590389169324, 41.31414461346978 -22.416117214890306, 41.443644891312644 -22.234740790612136 M41.20351504698197 -22.57106356344834 C41.270511026724186 -22.477229855528417, 41.3375070064664 -22.383396147608497, 41.443644891312644 -22.234740790612136 M41.443644891312644 -22.234740790612136 C41.491683196948884 -22.154122111689137, 41.53972150258512 -22.073503432766138, 41.65518125603245 -21.87973696518537 M41.443644891312644 -22.234740790612136 C41.51650731198851 -22.112461871315926, 41.58936973266437 -21.990182952019715, 41.65518125603245 -21.87973696518537 M41.65518125603245 -21.87973696518537 C41.719416774175954 -21.748341112661247, 41.78365229231946 -21.61694526013713, 41.83667913327529 -21.508477123264846 M41.65518125603245 -21.87973696518537 C41.712345713338046 -21.762805198791465, 41.76951017064365 -21.645873432397565, 41.83667913327529 -21.508477123264846 M41.83667913327529 -21.508477123264846 C41.89143796534037 -21.36814226385364, 41.946196797405456 -21.22780740444243, 41.986898708503176 -21.123497346023417 M41.83667913327529 -21.508477123264846 C41.89200662931167 -21.366684902995942, 41.94733412534806 -21.22489268272704, 41.986898708503176 -21.123497346023417 M41.986898708503176 -21.123497346023417 C42.013885911125016 -21.03284893033238, 42.04087311374686 -20.942200514641343, 42.10481382969665 -20.727427435703994 M41.986898708503176 -21.123497346023417 C42.01617526005702 -21.025159142822428, 42.04545181161087 -20.92682093962144, 42.10481382969665 -20.727427435703994 M42.10481382969665 -20.727427435703994 C42.13272562849389 -20.59430996322868, 42.16063742729112 -20.461192490753366, 42.18961901701361 -20.32297295140367 M42.10481382969665 -20.727427435703994 C42.13684893036559 -20.574645034880593, 42.16888403103452 -20.42186263405719, 42.18961901701361 -20.32297295140367 M42.18961901701361 -20.32297295140367 C42.203085076001145 -20.21494188015754, 42.21655113498868 -20.106910808911405, 42.24073496503335 -19.912896727361662 M42.18961901701361 -20.32297295140367 C42.20339903279332 -20.21242317081464, 42.21717904857303 -20.101873390225602, 42.24073496503335 -19.912896727361662 M42.24073496503335 -19.912896727361662 C42.24642043530968 -19.77543472976114, 42.252105905586006 -19.637972732160616, 42.2578125 -19.5 M42.24073496503335 -19.912896727361662 C42.24494362515268 -19.811140707348144, 42.249152285272004 -19.709384687334627, 42.2578125 -19.5 M42.2578125 -19.5 C42.2578125 -19.5, 42.2578125 -19.5, 42.2578125 -19.5 M42.2578125 -19.5 C42.2578125 -19.5, 42.2578125 -19.5, 42.2578125 -19.5 M42.2578125 -19.5 C42.2578125 -7.400585811747977, 42.2578125 4.698828376504046, 42.2578125 19.5 M42.2578125 -19.5 C42.2578125 -3.9546115510096786, 42.2578125 11.590776897980643, 42.2578125 19.5 M42.2578125 19.5 C42.2578125 19.5, 42.2578125 19.5, 42.2578125 19.5 M42.2578125 19.5 C42.2578125 19.5, 42.2578125 19.5, 42.2578125 19.5 M42.2578125 19.5 C42.253207699387396 19.61133381409026, 42.24860289877479 19.722667628180517, 42.24073496503335 19.912896727361662 M42.2578125 19.5 C42.252876956155625 19.619330448163154, 42.24794141231125 19.73866089632631, 42.24073496503335 19.912896727361662 M42.24073496503335 19.912896727361662 C42.22920418298686 20.00540209496332, 42.217673400940384 20.097907462564976, 42.18961901701361 20.32297295140367 M42.24073496503335 19.912896727361662 C42.22635912410829 20.028226498056693, 42.21198328318324 20.143556268751723, 42.18961901701361 20.32297295140367 M42.18961901701361 20.32297295140367 C42.157002901491424 20.47852633912397, 42.12438678596923 20.63407972684427, 42.10481382969665 20.727427435703994 M42.18961901701361 20.32297295140367 C42.15800088977575 20.473766714746674, 42.12638276253788 20.624560478089677, 42.10481382969665 20.727427435703994 M42.10481382969665 20.727427435703994 C42.071259440643956 20.840134641772327, 42.03770505159125 20.95284184784066, 41.986898708503176 21.123497346023417 M42.10481382969665 20.727427435703994 C42.062163384922506 20.87068775436205, 42.01951294014835 21.013948073020103, 41.986898708503176 21.123497346023417 M41.986898708503176 21.123497346023417 C41.93580763561925 21.254432544236053, 41.88471656273531 21.38536774244869, 41.83667913327529 21.508477123264846 M41.986898708503176 21.123497346023417 C41.92742989335453 21.275902857582125, 41.86796107820588 21.428308369140833, 41.83667913327529 21.508477123264846 M41.83667913327529 21.508477123264846 C41.776796558243824 21.63096888833508, 41.71691398321236 21.75346065340531, 41.65518125603245 21.879736965185366 M41.83667913327529 21.508477123264846 C41.793585047107015 21.596627485470666, 41.750490960938734 21.684777847676486, 41.65518125603245 21.879736965185366 M41.65518125603245 21.879736965185366 C41.57441295056264 22.01528367108154, 41.49364464509282 22.150830376977716, 41.443644891312644 22.234740790612133 M41.65518125603245 21.879736965185366 C41.577385210133926 22.01029557591707, 41.4995891642354 22.14085418664877, 41.443644891312644 22.234740790612133 M41.443644891312644 22.234740790612133 C41.354664590074236 22.359365456586985, 41.26568428883582 22.483990122561835, 41.20351504698197 22.57106356344834 M41.443644891312644 22.234740790612133 C41.34917992439436 22.3670472088268, 41.254714957476075 22.499353627041472, 41.20351504698197 22.57106356344834 M41.20351504698197 22.57106356344834 C41.1308584544478 22.65684904015107, 41.05820186191362 22.7426345168538, 40.93643205336566 22.886407858128706 M41.20351504698197 22.57106356344834 C41.131118308121636 22.656542231498122, 41.0587215692613 22.742020899547907, 40.93643205336566 22.886407858128706 M40.93643205336566 22.886407858128706 C40.86923061357855 22.95360929791581, 40.802029173791446 23.020810737702917, 40.644220358128706 23.178619553365657 M40.93643205336566 22.886407858128706 C40.82934713112165 22.993492780372712, 40.722262208877645 23.100577702616715, 40.644220358128706 23.178619553365657 M40.644220358128706 23.178619553365657 C40.52666227470588 23.27818617110387, 40.40910419128304 23.37775278884208, 40.32887606344834 23.44570254698197 M40.644220358128706 23.178619553365657 C40.562448281508686 23.247876969422716, 40.48067620488867 23.317134385479775, 40.32887606344834 23.44570254698197 M40.32887606344834 23.44570254698197 C40.23232878341292 23.51463597997536, 40.135781503377494 23.58356941296875, 39.992553290612136 23.685832391312644 M40.32887606344834 23.44570254698197 C40.1980725402253 23.539094467500984, 40.06726901700225 23.63248638802, 39.992553290612136 23.685832391312644 M39.992553290612136 23.685832391312644 C39.86296547659891 23.763049967927177, 39.73337766258568 23.84026754454171, 39.637549465185366 23.897368756032446 M39.992553290612136 23.685832391312644 C39.88964738584798 23.747151000980704, 39.786741481083816 23.808469610648764, 39.637549465185366 23.897368756032446 M39.637549465185366 23.897368756032446 C39.51064639097358 23.95940788869458, 39.38374331676179 24.021447021356714, 39.266289623264846 24.078866633275286 M39.637549465185366 23.897368756032446 C39.54950544973888 23.940410852438053, 39.461461434292396 23.983452948843656, 39.266289623264846 24.078866633275286 M39.266289623264846 24.078866633275286 C39.143790045206956 24.126666116960664, 39.02129046714906 24.17446560064604, 38.88130984602342 24.229086208503173 M39.266289623264846 24.078866633275286 C39.17593258618145 24.114124058552992, 39.08557554909805 24.1493814838307, 38.88130984602342 24.229086208503173 M38.88130984602342 24.229086208503173 C38.77761612689752 24.25995716622847, 38.67392240777162 24.290828123953766, 38.485239935703994 24.347001329696653 M38.88130984602342 24.229086208503173 C38.7579674173332 24.265806840513758, 38.63462498864298 24.302527472524343, 38.485239935703994 24.347001329696653 M38.485239935703994 24.347001329696653 C38.324993353573646 24.38060150460379, 38.164746771443305 24.414201679510924, 38.08078545140367 24.431806517013612 M38.485239935703994 24.347001329696653 C38.33558868308565 24.378379897627408, 38.18593743046731 24.409758465558163, 38.08078545140367 24.431806517013612 M38.08078545140367 24.431806517013612 C37.960158964683835 24.446842592902623, 37.839532477964006 24.46187866879163, 37.67070922736166 24.482922465033347 M38.08078545140367 24.431806517013612 C37.98643626447392 24.443567130899655, 37.892087077544176 24.455327744785702, 37.67070922736166 24.482922465033347 M37.67070922736166 24.482922465033347 C37.556268809970575 24.487655755708918, 37.44182839257948 24.49238904638449, 37.2578125 24.5 M37.67070922736166 24.482922465033347 C37.556319062877115 24.48765367723333, 37.44192889839257 24.49238488943331, 37.2578125 24.5 M37.2578125 24.5 C37.2578125 24.5, 37.2578125 24.5, 37.2578125 24.5 M37.2578125 24.5 C37.2578125 24.5, 37.2578125 24.5, 37.2578125 24.5 M37.2578125 24.5 C9.935606279210486 24.5, -17.38659994157903 24.5, -37.2578125 24.5 M37.2578125 24.5 C13.392817829908072 24.5, -10.472176840183856 24.5, -37.2578125 24.5 M-37.2578125 24.5 C-37.2578125 24.5, -37.2578125 24.5, -37.2578125 24.5 M-37.2578125 24.5 C-37.2578125 24.5, -37.2578125 24.5, -37.2578125 24.5 M-37.2578125 24.5 C-37.34385146708626 24.49644140199827, -37.42989043417251 24.49288280399654, -37.67070922736166 24.482922465033347 M-37.2578125 24.5 C-37.3528491526562 24.496069254970315, -37.447885805312396 24.49213850994063, -37.67070922736166 24.482922465033347 M-37.67070922736166 24.482922465033347 C-37.785150920409265 24.4686573228716, -37.89959261345687 24.454392180709853, -38.08078545140367 24.431806517013612 M-37.67070922736166 24.482922465033347 C-37.79235651888652 24.467759145958087, -37.91400381041138 24.45259582688283, -38.08078545140367 24.431806517013612 M-38.08078545140367 24.431806517013612 C-38.18423149371165 24.41011616288068, -38.28767753601963 24.388425808747748, -38.485239935703994 24.347001329696653 M-38.08078545140367 24.431806517013612 C-38.225290017192435 24.401507095828872, -38.3697945829812 24.371207674644133, -38.485239935703994 24.347001329696653 M-38.485239935703994 24.347001329696653 C-38.607241257915554 24.310679962383645, -38.72924258012712 24.27435859507064, -38.88130984602342 24.229086208503173 M-38.485239935703994 24.347001329696653 C-38.57220193885404 24.32111161963916, -38.6591639420041 24.29522190958167, -38.88130984602342 24.229086208503173 M-38.88130984602342 24.229086208503173 C-38.970775436349875 24.19417662682942, -39.06024102667633 24.15926704515567, -39.266289623264846 24.078866633275286 M-38.88130984602342 24.229086208503173 C-38.97336668920616 24.19316551682731, -39.0654235323889 24.15724482515145, -39.266289623264846 24.078866633275286 M-39.266289623264846 24.078866633275286 C-39.34839793316391 24.038726326492878, -39.43050624306298 23.998586019710473, -39.637549465185366 23.897368756032446 M-39.266289623264846 24.078866633275286 C-39.34731109868903 24.039257647491898, -39.42833257411323 23.999648661708505, -39.637549465185366 23.897368756032446 M-39.637549465185366 23.897368756032446 C-39.76924234686061 23.818896831355108, -39.90093522853586 23.74042490667777, -39.992553290612136 23.685832391312644 M-39.637549465185366 23.897368756032446 C-39.774750029677605 23.815614964744974, -39.91195059416985 23.733861173457505, -39.992553290612136 23.685832391312644 M-39.992553290612136 23.685832391312644 C-40.123445390649174 23.592377228164008, -40.25433749068622 23.498922065015368, -40.32887606344834 23.44570254698197 M-39.992553290612136 23.685832391312644 C-40.07049447635606 23.630183454305477, -40.14843566209999 23.574534517298314, -40.32887606344834 23.44570254698197 M-40.32887606344834 23.44570254698197 C-40.41174645964706 23.375514901693005, -40.49461685584578 23.305327256404045, -40.644220358128706 23.17861955336566 M-40.32887606344834 23.44570254698197 C-40.43103172467521 23.359181115405157, -40.533187385902075 23.272659683828344, -40.644220358128706 23.17861955336566 M-40.644220358128706 23.17861955336566 C-40.749127010783944 23.073712900710422, -40.85403366343918 22.968806248055184, -40.93643205336566 22.886407858128706 M-40.644220358128706 23.17861955336566 C-40.75815132729614 23.064688584198226, -40.87208229646357 22.950757615030792, -40.93643205336566 22.886407858128706 M-40.93643205336566 22.886407858128706 C-41.02513213242139 22.7816798726842, -41.11383221147713 22.6769518872397, -41.20351504698197 22.57106356344834 M-40.93643205336566 22.886407858128706 C-40.99622103165913 22.815815144851342, -41.05601000995261 22.74522243157398, -41.20351504698197 22.57106356344834 M-41.20351504698197 22.57106356344834 C-41.29296879162063 22.445775798733735, -41.38242253625929 22.32048803401913, -41.443644891312644 22.234740790612133 M-41.20351504698197 22.57106356344834 C-41.27075576149036 22.476887083161248, -41.33799647599876 22.382710602874155, -41.443644891312644 22.234740790612133 M-41.443644891312644 22.234740790612133 C-41.52155963612551 22.103982977399472, -41.599474380938375 21.973225164186807, -41.65518125603244 21.87973696518537 M-41.443644891312644 22.234740790612133 C-41.50929639138912 22.124563357512027, -41.5749478914656 22.01438592441192, -41.65518125603244 21.87973696518537 M-41.65518125603244 21.87973696518537 C-41.69730509018051 21.793571285209, -41.73942892432857 21.707405605232633, -41.83667913327528 21.50847712326485 M-41.65518125603244 21.87973696518537 C-41.70699966319132 21.773740719154148, -41.75881807035019 21.667744473122927, -41.83667913327528 21.50847712326485 M-41.83667913327528 21.50847712326485 C-41.89281044759472 21.36462489328629, -41.94894176191415 21.220772663307734, -41.986898708503176 21.123497346023417 M-41.83667913327528 21.50847712326485 C-41.89456583082678 21.360126231613023, -41.952452528378274 21.2117753399612, -41.986898708503176 21.123497346023417 M-41.986898708503176 21.123497346023417 C-42.01629129710962 21.024769381233316, -42.045683885716066 20.926041416443216, -42.10481382969665 20.727427435703994 M-41.986898708503176 21.123497346023417 C-42.01633220426667 21.024631976514907, -42.04576570003016 20.925766607006395, -42.10481382969665 20.727427435703994 M-42.10481382969665 20.727427435703994 C-42.126807773957864 20.62253350568234, -42.148801718219076 20.517639575660688, -42.18961901701361 20.32297295140367 M-42.10481382969665 20.727427435703994 C-42.13546739868913 20.581233861571796, -42.16612096768161 20.435040287439598, -42.18961901701361 20.32297295140367 M-42.18961901701361 20.32297295140367 C-42.20845955234287 20.171825298155216, -42.227300087672134 20.02067764490676, -42.24073496503335 19.912896727361662 M-42.18961901701361 20.32297295140367 C-42.204938082771044 20.20007618659685, -42.220257148528475 20.077179421790024, -42.24073496503335 19.912896727361662 M-42.24073496503335 19.912896727361662 C-42.244325192633376 19.826093027095197, -42.247915420233404 19.739289326828736, -42.2578125 19.5 M-42.24073496503335 19.912896727361662 C-42.2461825833148 19.781185460793036, -42.25163020159626 19.64947419422441, -42.2578125 19.5 M-42.2578125 19.5 C-42.2578125 19.5, -42.2578125 19.5, -42.2578125 19.5 M-42.2578125 19.5 C-42.2578125 19.5, -42.2578125 19.5, -42.2578125 19.5 M-42.2578125 19.5 C-42.2578125 8.968288216654425, -42.2578125 -1.5634235666911493, -42.2578125 -19.5 M-42.2578125 19.5 C-42.2578125 11.371842298032131, -42.2578125 3.243684596064263, -42.2578125 -19.5 M-42.2578125 -19.5 C-42.2578125 -19.5, -42.2578125 -19.5, -42.2578125 -19.5 M-42.2578125 -19.5 C-42.2578125 -19.5, -42.2578125 -19.5, -42.2578125 -19.5 M-42.2578125 -19.5 C-42.25340843408317 -19.606480496611113, -42.24900436816635 -19.712960993222225, -42.24073496503335 -19.91289672736166 M-42.2578125 -19.5 C-42.25410885583321 -19.589545860029887, -42.25040521166642 -19.679091720059773, -42.24073496503335 -19.91289672736166 M-42.24073496503335 -19.91289672736166 C-42.225940727951674 -20.0315830691995, -42.21114649087 -20.15026941103734, -42.18961901701361 -20.32297295140367 M-42.24073496503335 -19.91289672736166 C-42.22202923875442 -20.062962878877876, -42.2033235124755 -20.21302903039409, -42.18961901701361 -20.32297295140367 M-42.18961901701361 -20.32297295140367 C-42.165748561635425 -20.43681637331505, -42.14187810625724 -20.55065979522643, -42.10481382969665 -20.727427435703994 M-42.18961901701361 -20.32297295140367 C-42.170844634068295 -20.412512089426258, -42.15207025112298 -20.50205122744885, -42.10481382969665 -20.727427435703994 M-42.10481382969665 -20.727427435703994 C-42.07728151531374 -20.819906849524312, -42.04974920093083 -20.912386263344633, -41.986898708503176 -21.123497346023417 M-42.10481382969665 -20.727427435703994 C-42.07230796016285 -20.83661272679133, -42.039802090629045 -20.945798017878666, -41.986898708503176 -21.123497346023417 M-41.986898708503176 -21.123497346023417 C-41.95440711715122 -21.20676615823993, -41.921915525799264 -21.290034970456446, -41.83667913327529 -21.508477123264846 M-41.986898708503176 -21.123497346023417 C-41.94846403994913 -21.221996959777734, -41.91002937139508 -21.32049657353205, -41.83667913327529 -21.508477123264846 M-41.83667913327529 -21.508477123264846 C-41.76849974725253 -21.647940286479592, -41.70032036122977 -21.787403449694335, -41.65518125603245 -21.879736965185366 M-41.83667913327529 -21.508477123264846 C-41.793500095293965 -21.59680125718173, -41.75032105731264 -21.685125391098616, -41.65518125603245 -21.879736965185366 M-41.65518125603245 -21.879736965185366 C-41.606823041629006 -21.96089252029179, -41.558464827225556 -22.042048075398213, -41.443644891312644 -22.234740790612133 M-41.65518125603245 -21.879736965185366 C-41.593022426952864 -21.984052940060565, -41.53086359787328 -22.08836891493576, -41.443644891312644 -22.234740790612133 M-41.443644891312644 -22.234740790612133 C-41.36541042239194 -22.3443149819923, -41.28717595347124 -22.453889173372467, -41.20351504698197 -22.57106356344834 M-41.443644891312644 -22.234740790612133 C-41.359953514990025 -22.351957856344878, -41.2762621386674 -22.469174922077624, -41.20351504698197 -22.57106356344834 M-41.20351504698197 -22.57106356344834 C-41.13322984926167 -22.654049139585098, -41.06294465154136 -22.737034715721855, -40.93643205336566 -22.886407858128706 M-41.20351504698197 -22.57106356344834 C-41.14874180057716 -22.635734213275228, -41.093968554172356 -22.70040486310212, -40.93643205336566 -22.886407858128706 M-40.93643205336566 -22.886407858128706 C-40.86242209580384 -22.96041781569052, -40.78841213824203 -23.034427773252332, -40.644220358128706 -23.178619553365657 M-40.93643205336566 -22.886407858128706 C-40.86671711953567 -22.95612279195869, -40.797002185705686 -23.025837725788676, -40.644220358128706 -23.178619553365657 M-40.644220358128706 -23.178619553365657 C-40.53382754196112 -23.27211749930332, -40.42343472579352 -23.365615445240984, -40.32887606344834 -23.445702546981966 M-40.644220358128706 -23.178619553365657 C-40.549510522242315 -23.258834692564818, -40.45480068635592 -23.339049831763983, -40.32887606344834 -23.445702546981966 M-40.32887606344834 -23.445702546981966 C-40.24833311940715 -23.503209103708546, -40.16779017536596 -23.560715660435125, -39.992553290612136 -23.685832391312644 M-40.32887606344834 -23.445702546981966 C-40.25535678756549 -23.49819430103173, -40.18183751168264 -23.5506860550815, -39.992553290612136 -23.685832391312644 M-39.992553290612136 -23.685832391312644 C-39.863354463949356 -23.762818181776883, -39.73415563728657 -23.839803972241125, -39.637549465185366 -23.897368756032446 M-39.992553290612136 -23.685832391312644 C-39.9174173156055 -23.730603714532823, -39.84228134059886 -23.775375037753, -39.637549465185366 -23.897368756032446 M-39.637549465185366 -23.897368756032446 C-39.529467580849456 -23.950206769629332, -39.42138569651354 -24.00304478322622, -39.266289623264846 -24.078866633275286 M-39.637549465185366 -23.897368756032446 C-39.51008163799224 -23.95968397960371, -39.382613810799114 -24.021999203174975, -39.266289623264846 -24.078866633275286 M-39.266289623264846 -24.078866633275286 C-39.17785953389197 -24.11337216122313, -39.089429444519084 -24.147877689170972, -38.88130984602342 -24.229086208503173 M-39.266289623264846 -24.078866633275286 C-39.11243115528757 -24.138902393777755, -38.95857268731029 -24.198938154280224, -38.88130984602342 -24.229086208503173 M-38.88130984602342 -24.229086208503173 C-38.764561481675294 -24.263843702502523, -38.64781311732716 -24.29860119650187, -38.485239935703994 -24.347001329696653 M-38.88130984602342 -24.229086208503173 C-38.760892218955554 -24.264936089343873, -38.64047459188768 -24.300785970184577, -38.485239935703994 -24.347001329696653 M-38.485239935703994 -24.347001329696653 C-38.383808855023155 -24.36826919080538, -38.28237777434231 -24.389537051914104, -38.08078545140367 -24.431806517013612 M-38.485239935703994 -24.347001329696653 C-38.36608262299142 -24.37198599080693, -38.24692531027885 -24.396970651917204, -38.08078545140367 -24.431806517013612 M-38.08078545140367 -24.431806517013612 C-37.986032310632645 -24.443617483693462, -37.89127916986161 -24.45542845037331, -37.67070922736166 -24.482922465033347 M-38.08078545140367 -24.431806517013612 C-37.97256852393285 -24.44529574295539, -37.864351596462036 -24.458784968897167, -37.67070922736166 -24.482922465033347 M-37.67070922736166 -24.482922465033347 C-37.523767273969426 -24.48900002918155, -37.37682532057718 -24.495077593329757, -37.2578125 -24.5 M-37.67070922736166 -24.482922465033347 C-37.54184308341031 -24.488252408172904, -37.412976939458964 -24.49358235131246, -37.2578125 -24.5 M-37.2578125 -24.5 C-37.2578125 -24.5, -37.2578125 -24.5, -37.2578125 -24.5 M-37.2578125 -24.5 C-37.2578125 -24.5, -37.2578125 -24.5, -37.2578125 -24.5" stroke="#999" stroke-width="1.3" fill="none" stroke-dasharray="0 0" style=""/></g><g class="label" style="" transform="translate(0, -9.5)"><rect/><g><rect class="background" style="stroke: none"/><text y="-10.1" style=""><tspan class="text-outer-tspan" x="0" y="-0.1em" dy="1.1em"><tspan font-style="normal" class="text-inner-tspan" font-weight="normal">Newton</tspan></tspan></text></g></g></g><g class="node default Rose" id="flowchart-U-1" transform="translate(50.2578125, 131.5)"><g class="basic label-container outer-path"><path d="M-34.046875 -24.5 C-6.9815347374298575 -24.5, 20.083805525140285 -24.5, 34.046875 -24.5 C34.046875 -24.5, 34.046875 -24.5, 34.046875 -24.5 C34.19266417512276 -24.493970115113704, 34.338453350245516 -24.487940230227412, 34.45977172736166 -24.482922465033347 C34.621133654516974 -24.462808721789383, 34.78249558167228 -24.44269497854542, 34.86984795140367 -24.431806517013612 C35.02328762693665 -24.39963360033069, 35.17672730246963 -24.36746068364777, 35.274302435703994 -24.347001329696653 C35.397850804282534 -24.310219386724903, 35.52139917286107 -24.273437443753156, 35.67037234602342 -24.229086208503173 C35.80281009846109 -24.177408837141286, 35.935247850898755 -24.125731465779396, 36.055352123264846 -24.078866633275286 C36.18589015515944 -24.015050478083904, 36.31642818705404 -23.95123432289252, 36.426611965185366 -23.897368756032446 C36.56097826659792 -23.817303818964547, 36.695344568010476 -23.73723888189665, 36.781615790612136 -23.685832391312644 C36.8517274236257 -23.635773647507285, 36.92183905663926 -23.585714903701927, 37.11793856344834 -23.44570254698197 C37.22843762754017 -23.35211461364276, 37.33893669163199 -23.258526680303554, 37.433282858128706 -23.178619553365657 C37.507734676859016 -23.104167734635347, 37.582186495589326 -23.029715915905037, 37.72549455336566 -22.886407858128706 C37.823357538562625 -22.770861249846387, 37.921220523759594 -22.655314641564072, 37.99257754698197 -22.57106356344834 C38.048915042411885 -22.492157991629693, 38.10525253784179 -22.41325241981104, 38.232707391312644 -22.234740790612136 C38.29795927950721 -22.1252339927806, 38.36321116770177 -22.01572719494906, 38.44424375603245 -21.87973696518537 C38.487017226000184 -21.792242433900217, 38.52979069596792 -21.70474790261506, 38.62574163327529 -21.508477123264846 C38.682300633774545 -21.36352882754394, 38.738859634273794 -21.218580531823036, 38.775961208503176 -21.123497346023417 C38.817135155301486 -20.985196496642565, 38.858309102099795 -20.846895647261714, 38.89387632969665 -20.727427435703994 C38.917564681414675 -20.614452505972046, 38.9412530331327 -20.5014775762401, 38.97868151701361 -20.32297295140367 C38.99171061841786 -20.218447359812327, 39.00473971982211 -20.113921768220983, 39.02979746503335 -19.912896727361662 C39.03402782257294 -19.810616112092617, 39.038258180112535 -19.708335496823572, 39.046875 -19.5 C39.046875 -19.5, 39.046875 -19.5, 39.046875 -19.5 C39.046875 -8.446121013856843, 39.046875 2.607757972286315, 39.046875 19.5 C39.046875 19.5, 39.046875 19.5, 39.046875 19.5 C39.04208228895683 19.61587706942364, 39.03728957791366 19.73175413884728, 39.02979746503335 19.912896727361662 C39.01238825990513 20.05256157520518, 38.994979054776906 20.192226423048695, 38.97868151701361 20.32297295140367 C38.95873234895899 20.41811489652546, 38.938783180904366 20.513256841647248, 38.89387632969665 20.727427435703994 C38.87002444460467 20.8075445054548, 38.84617255951268 20.887661575205605, 38.775961208503176 21.123497346023417 C38.73620391828745 21.225386548597402, 38.696446628071726 21.327275751171392, 38.62574163327529 21.508477123264846 C38.56763025876009 21.62734583977016, 38.5095188842449 21.74621455627548, 38.44424375603245 21.879736965185366 C38.376603634201274 21.993251736199827, 38.30896351237009 22.106766507214292, 38.232707391312644 22.234740790612133 C38.14514243547939 22.357383142008338, 38.05757747964615 22.48002549340454, 37.99257754698197 22.57106356344834 C37.89853980392171 22.682093716874256, 37.804502060861445 22.793123870300175, 37.72549455336566 22.886407858128706 C37.65736318512315 22.954539226371214, 37.58923181688064 23.02267059461372, 37.433282858128706 23.178619553365657 C37.35267516547402 23.246890786509542, 37.27206747281933 23.31516201965343, 37.11793856344834 23.44570254698197 C37.02232484165354 23.5139694322031, 36.926711119858744 23.582236317424233, 36.781615790612136 23.685832391312644 C36.677177480499964 23.74806411637096, 36.57273917038779 23.81029584142927, 36.426611965185366 23.897368756032446 C36.33196561756309 23.943638535961696, 36.23731926994082 23.989908315890943, 36.055352123264846 24.078866633275286 C35.91012797782947 24.135533270667135, 35.7649038323941 24.192199908058985, 35.67037234602342 24.229086208503173 C35.52270602753092 24.273048376260867, 35.375039709038425 24.31701054401856, 35.274302435703994 24.347001329696653 C35.17870275804141 24.367046474172284, 35.08310308037882 24.387091618647915, 34.86984795140367 24.431806517013612 C34.77199367350248 24.444004040033608, 34.67413939560129 24.456201563053607, 34.45977172736166 24.482922465033347 C34.315707541991564 24.488881003815724, 34.17164335662146 24.494839542598097, 34.046875 24.5 C34.046875 24.5, 34.046875 24.5, 34.046875 24.5 C13.610596521891566 24.5, -6.825681956216869 24.5, -34.046875 24.5 C-34.046875 24.5, -34.046875 24.5, -34.046875 24.5 C-34.14304883227116 24.496022220873527, -34.23922266454233 24.492044441747055, -34.45977172736166 24.482922465033347 C-34.58374548233879 24.467469152591185, -34.70771923731593 24.452015840149027, -34.86984795140367 24.431806517013612 C-34.998989969127265 24.404728283420813, -35.12813198685085 24.377650049828013, -35.274302435703994 24.347001329696653 C-35.411973564952774 24.306014858704398, -35.54964469420155 24.26502838771214, -35.67037234602342 24.229086208503173 C-35.75355580379868 24.196627922557543, -35.836739261573946 24.164169636611913, -36.055352123264846 24.078866633275286 C-36.142593856639174 24.03621674867555, -36.22983559001351 23.993566864075813, -36.426611965185366 23.897368756032446 C-36.50821522872843 23.848743765306164, -36.5898184922715 23.80011877457988, -36.781615790612136 23.685832391312644 C-36.851202888920646 23.636148158088318, -36.920789987229156 23.586463924863992, -37.11793856344834 23.44570254698197 C-37.22955876743813 23.35116505658636, -37.341178971427915 23.256627566190748, -37.433282858128706 23.17861955336566 C-37.52605104591698 23.085851365577383, -37.61881923370525 22.993083177789106, -37.72549455336566 22.886407858128706 C-37.81679157367399 22.778613669941237, -37.90808859398231 22.67081948175377, -37.99257754698197 22.57106356344834 C-38.08647230579582 22.43955577137408, -38.18036706460968 22.30804797929982, -38.232707391312644 22.234740790612133 C-38.305836257942914 22.112014717309048, -38.37896512457319 21.98928864400596, -38.44424375603244 21.87973696518537 C-38.50625250737613 21.75289603695376, -38.56826125871983 21.626055108722152, -38.62574163327528 21.50847712326485 C-38.656576201826184 21.42945489654071, -38.687410770377085 21.350432669816577, -38.775961208503176 21.123497346023417 C-38.82119780120865 20.9715503095902, -38.86643439391412 20.819603273156986, -38.89387632969665 20.727427435703994 C-38.91270796635376 20.6376152422091, -38.93153960301087 20.547803048714204, -38.97868151701361 20.32297295140367 C-38.98980859216958 20.233706310729634, -39.00093566732554 20.1444396700556, -39.02979746503335 19.912896727361662 C-39.03569265122991 19.770364266295132, -39.04158783742646 19.627831805228602, -39.046875 19.5 C-39.046875 19.5, -39.046875 19.5, -39.046875 19.5 C-39.046875 6.469905861408202, -39.046875 -6.560188277183595, -39.046875 -19.5 C-39.046875 -19.5, -39.046875 -19.5, -39.046875 -19.5 C-39.04228901388766 -19.610878921413992, -39.037703027775315 -19.72175784282798, -39.02979746503335 -19.91289672736166 C-39.012023601222104 -20.055487039010337, -38.99424973741086 -20.198077350659013, -38.97868151701361 -20.32297295140367 C-38.9501324000506 -20.45912993358625, -38.921583283087585 -20.595286915768828, -38.89387632969665 -20.727427435703994 C-38.86669683299052 -20.818721755838407, -38.83951733628439 -20.910016075972823, -38.775961208503176 -21.123497346023417 C-38.72489875411921 -21.25435920130639, -38.673836299735235 -21.385221056589366, -38.62574163327529 -21.508477123264846 C-38.5708080325336 -21.620845599620072, -38.51587443179191 -21.733214075975297, -38.44424375603245 -21.879736965185366 C-38.395335961141114 -21.961814835354915, -38.34642816624979 -22.043892705524463, -38.232707391312644 -22.234740790612133 C-38.14546100024724 -22.35693696429, -38.058214609181825 -22.47913313796787, -37.99257754698197 -22.57106356344834 C-37.93597680481574 -22.637891933443466, -37.8793760626495 -22.704720303438588, -37.72549455336566 -22.886407858128706 C-37.626949062988295 -22.984953348506068, -37.528403572610934 -23.083498838883433, -37.433282858128706 -23.178619553365657 C-37.359495171138526 -23.241114536359838, -37.28570748414834 -23.30360951935402, -37.11793856344834 -23.445702546981966 C-37.0395864275942 -23.501644896728212, -36.96123429174007 -23.55758724647446, -36.781615790612136 -23.685832391312644 C-36.6525034852948 -23.762766626245433, -36.52339117997746 -23.839700861178226, -36.426611965185366 -23.897368756032446 C-36.30239937498927 -23.958092591206228, -36.17818678479317 -24.018816426380013, -36.055352123264846 -24.078866633275286 C-35.93973201189535 -24.12398174072893, -35.82411190052586 -24.169096848182573, -35.67037234602342 -24.229086208503173 C-35.53924783712284 -24.26812366617315, -35.408123328222274 -24.30716112384313, -35.274302435703994 -24.347001329696653 C-35.154954193126 -24.37202602458979, -35.03560595054801 -24.397050719482927, -34.86984795140367 -24.431806517013612 C-34.70849575319321 -24.451919047545864, -34.54714355498275 -24.472031578078116, -34.45977172736166 -24.482922465033347 C-34.34789467288426 -24.487549734234566, -34.23601761840685 -24.49217700343578, -34.046875 -24.5 C-34.046875 -24.5, -34.046875 -24.5, -34.046875 -24.5" stroke="none" stroke-width="0" fill="#FFDFE5" style="stroke-width:1px !important;stroke-dasharray:none !important;stroke:#FF5978 !important;fill:#FFDFE5 !important"/><path d="M-34.046875 -24.5 C-12.714444128601997 -24.5, 8.617986742796006 -24.5, 34.046875 -24.5 M-34.046875 -24.5 C-18.13284913782901 -24.5, -2.2188232756580177 -24.5, 34.046875 -24.5 M34.046875 -24.5 C34.046875 -24.5, 34.046875 -24.5, 34.046875 -24.5 M34.046875 -24.5 C34.046875 -24.5, 34.046875 -24.5, 34.046875 -24.5 M34.046875 -24.5 C34.17395149195183 -24.494744077414676, 34.30102798390366 -24.48948815482935, 34.45977172736166 -24.482922465033347 M34.046875 -24.5 C34.13828653458209 -24.49621919096294, 34.229698069164186 -24.492438381925883, 34.45977172736166 -24.482922465033347 M34.45977172736166 -24.482922465033347 C34.622738071581935 -24.4626087314108, 34.785704415802215 -24.44229499778825, 34.86984795140367 -24.431806517013612 M34.45977172736166 -24.482922465033347 C34.58098352102348 -24.467813430710105, 34.70219531468529 -24.452704396386864, 34.86984795140367 -24.431806517013612 M34.86984795140367 -24.431806517013612 C35.0304357209035 -24.398134802638126, 35.19102349040333 -24.364463088262635, 35.274302435703994 -24.347001329696653 M34.86984795140367 -24.431806517013612 C34.98353466985355 -24.407968918896064, 35.09722138830342 -24.38413132077851, 35.274302435703994 -24.347001329696653 M35.274302435703994 -24.347001329696653 C35.416949446994515 -24.304533474436848, 35.559596458285036 -24.26206561917704, 35.67037234602342 -24.229086208503173 M35.274302435703994 -24.347001329696653 C35.370510333054916 -24.31835899767311, 35.46671823040584 -24.289716665649568, 35.67037234602342 -24.229086208503173 M35.67037234602342 -24.229086208503173 C35.791662582594554 -24.181758611330245, 35.912952819165696 -24.134431014157315, 36.055352123264846 -24.078866633275286 M35.67037234602342 -24.229086208503173 C35.755348926578854 -24.19592824387754, 35.84032550713429 -24.162770279251905, 36.055352123264846 -24.078866633275286 M36.055352123264846 -24.078866633275286 C36.2015160078774 -24.007411464169152, 36.347679892489964 -23.935956295063022, 36.426611965185366 -23.897368756032446 M36.055352123264846 -24.078866633275286 C36.13731004519781 -24.038799846689596, 36.21926796713077 -23.998733060103902, 36.426611965185366 -23.897368756032446 M36.426611965185366 -23.897368756032446 C36.49967430950442 -23.853833048504278, 36.57273665382348 -23.810297340976113, 36.781615790612136 -23.685832391312644 M36.426611965185366 -23.897368756032446 C36.53476973416553 -23.832920714553563, 36.642927503145685 -23.768472673074676, 36.781615790612136 -23.685832391312644 M36.781615790612136 -23.685832391312644 C36.907514306094555 -23.595942579007307, 37.03341282157698 -23.50605276670197, 37.11793856344834 -23.44570254698197 M36.781615790612136 -23.685832391312644 C36.87266082498959 -23.620827486209816, 36.96370585936703 -23.555822581106987, 37.11793856344834 -23.44570254698197 M37.11793856344834 -23.44570254698197 C37.217131020252616 -23.36169082153028, 37.31632347705689 -23.277679096078593, 37.433282858128706 -23.178619553365657 M37.11793856344834 -23.44570254698197 C37.227339778036466 -23.35304444474145, 37.33674099262459 -23.260386342500933, 37.433282858128706 -23.178619553365657 M37.433282858128706 -23.178619553365657 C37.517050642054144 -23.09485176944022, 37.60081842597958 -23.01108398551478, 37.72549455336566 -22.886407858128706 M37.433282858128706 -23.178619553365657 C37.54778305231248 -23.064119359181877, 37.662283246496266 -22.949619164998097, 37.72549455336566 -22.886407858128706 M37.72549455336566 -22.886407858128706 C37.811702555275865 -22.78462226260992, 37.897910557186066 -22.682836667091127, 37.99257754698197 -22.57106356344834 M37.72549455336566 -22.886407858128706 C37.83188379301332 -22.760794320239174, 37.93827303266098 -22.63518078234964, 37.99257754698197 -22.57106356344834 M37.99257754698197 -22.57106356344834 C38.055537431482556 -22.482882758635405, 38.11849731598314 -22.39470195382247, 38.232707391312644 -22.234740790612136 M37.99257754698197 -22.57106356344834 C38.0762144710294 -22.453922762872185, 38.159851395076835 -22.336781962296026, 38.232707391312644 -22.234740790612136 M38.232707391312644 -22.234740790612136 C38.292651170793114 -22.134142148604212, 38.352594950273584 -22.03354350659629, 38.44424375603245 -21.87973696518537 M38.232707391312644 -22.234740790612136 C38.30066601091523 -22.12069151137074, 38.36862463051781 -22.00664223212934, 38.44424375603245 -21.87973696518537 M38.44424375603245 -21.87973696518537 C38.491381714342374 -21.78331473030058, 38.5385196726523 -21.686892495415798, 38.62574163327529 -21.508477123264846 M38.44424375603245 -21.87973696518537 C38.48252559879896 -21.801430204192762, 38.520807441565466 -21.72312344320016, 38.62574163327529 -21.508477123264846 M38.62574163327529 -21.508477123264846 C38.6745717575271 -21.383336239803988, 38.723401881778905 -21.258195356343126, 38.775961208503176 -21.123497346023417 M38.62574163327529 -21.508477123264846 C38.67688956203386 -21.377396215933285, 38.728037490792424 -21.246315308601723, 38.775961208503176 -21.123497346023417 M38.775961208503176 -21.123497346023417 C38.80799562440536 -21.015895639769866, 38.84003004030754 -20.908293933516312, 38.89387632969665 -20.727427435703994 M38.775961208503176 -21.123497346023417 C38.81761272387208 -20.983592372090833, 38.859264239240986 -20.84368739815825, 38.89387632969665 -20.727427435703994 M38.89387632969665 -20.727427435703994 C38.917054001433044 -20.6168880504847, 38.940231673169436 -20.506348665265406, 38.97868151701361 -20.32297295140367 M38.89387632969665 -20.727427435703994 C38.927763286450684 -20.565813128229674, 38.96165024320472 -20.40419882075535, 38.97868151701361 -20.32297295140367 M38.97868151701361 -20.32297295140367 C38.99068069994981 -20.226709851124927, 39.002679882886014 -20.130446750846183, 39.02979746503335 -19.912896727361662 M38.97868151701361 -20.32297295140367 C38.997842832528136 -20.169251848337353, 39.017004148042666 -20.01553074527104, 39.02979746503335 -19.912896727361662 M39.02979746503335 -19.912896727361662 C39.033929954647355 -19.812982340372393, 39.03806244426137 -19.713067953383124, 39.046875 -19.5 M39.02979746503335 -19.912896727361662 C39.03481696277671 -19.79153646106558, 39.03983646052007 -19.670176194769493, 39.046875 -19.5 M39.046875 -19.5 C39.046875 -19.5, 39.046875 -19.5, 39.046875 -19.5 M39.046875 -19.5 C39.046875 -19.5, 39.046875 -19.5, 39.046875 -19.5 M39.046875 -19.5 C39.046875 -9.005602748417633, 39.046875 1.4887945031647334, 39.046875 19.5 M39.046875 -19.5 C39.046875 -8.609132845476521, 39.046875 2.281734309046957, 39.046875 19.5 M39.046875 19.5 C39.046875 19.5, 39.046875 19.5, 39.046875 19.5 M39.046875 19.5 C39.046875 19.5, 39.046875 19.5, 39.046875 19.5 M39.046875 19.5 C39.042115956000956 19.61506307534505, 39.03735691200191 19.730126150690097, 39.02979746503335 19.912896727361662 M39.046875 19.5 C39.04190118147622 19.620255844591696, 39.03692736295244 19.740511689183393, 39.02979746503335 19.912896727361662 M39.02979746503335 19.912896727361662 C39.015339920793906 20.02888196054842, 39.00088237655446 20.14486719373518, 38.97868151701361 20.32297295140367 M39.02979746503335 19.912896727361662 C39.012556081377106 20.05121523226898, 38.99531469772087 20.1895337371763, 38.97868151701361 20.32297295140367 M38.97868151701361 20.32297295140367 C38.95577657353291 20.432211635928855, 38.932871630052205 20.541450320454036, 38.89387632969665 20.727427435703994 M38.97868151701361 20.32297295140367 C38.95068665226412 20.456486583570957, 38.92269178751462 20.590000215738247, 38.89387632969665 20.727427435703994 M38.89387632969665 20.727427435703994 C38.86993058131859 20.807859786675074, 38.84598483294052 20.888292137646154, 38.775961208503176 21.123497346023417 M38.89387632969665 20.727427435703994 C38.8654024331347 20.82306956831253, 38.83692853657274 20.918711700921065, 38.775961208503176 21.123497346023417 M38.775961208503176 21.123497346023417 C38.725273860537165 21.253397885945144, 38.674586512571146 21.383298425866876, 38.62574163327529 21.508477123264846 M38.775961208503176 21.123497346023417 C38.736110060962055 21.22562708430768, 38.69625891342093 21.327756822591944, 38.62574163327529 21.508477123264846 M38.62574163327529 21.508477123264846 C38.571230897585686 21.619980615330576, 38.51672016189608 21.7314841073963, 38.44424375603245 21.879736965185366 M38.62574163327529 21.508477123264846 C38.587823638141884 21.586039622028046, 38.54990564300848 21.66360212079125, 38.44424375603245 21.879736965185366 M38.44424375603245 21.879736965185366 C38.375315583867945 21.99541336356957, 38.30638741170344 22.111089761953767, 38.232707391312644 22.234740790612133 M38.44424375603245 21.879736965185366 C38.36181735860856 22.01806630841856, 38.27939096118467 22.156395651651753, 38.232707391312644 22.234740790612133 M38.232707391312644 22.234740790612133 C38.155457875483584 22.342935469354803, 38.07820835965452 22.451130148097477, 37.99257754698197 22.57106356344834 M38.232707391312644 22.234740790612133 C38.15589312062057 22.342325870611496, 38.07907884992849 22.449910950610857, 37.99257754698197 22.57106356344834 M37.99257754698197 22.57106356344834 C37.90738946829353 22.671644937894715, 37.82220138960509 22.77222631234109, 37.72549455336566 22.886407858128706 M37.99257754698197 22.57106356344834 C37.921149045222656 22.655399036113163, 37.849720543463334 22.739734508777982, 37.72549455336566 22.886407858128706 M37.72549455336566 22.886407858128706 C37.60970613067458 23.00219628081978, 37.493917707983506 23.11798470351086, 37.433282858128706 23.178619553365657 M37.72549455336566 22.886407858128706 C37.666153357783934 22.945749053710426, 37.60681216220222 23.005090249292145, 37.433282858128706 23.178619553365657 M37.433282858128706 23.178619553365657 C37.343193297551416 23.254921518990088, 37.25310373697412 23.33122348461452, 37.11793856344834 23.44570254698197 M37.433282858128706 23.178619553365657 C37.32408145694046 23.271108422289114, 37.21488005575222 23.36359729121257, 37.11793856344834 23.44570254698197 M37.11793856344834 23.44570254698197 C36.986707384770455 23.53939980762688, 36.85547620609257 23.633097068271784, 36.781615790612136 23.685832391312644 M37.11793856344834 23.44570254698197 C37.045421651644375 23.4974786268352, 36.97290473984041 23.54925470668843, 36.781615790612136 23.685832391312644 M36.781615790612136 23.685832391312644 C36.669780817941266 23.752471570591613, 36.55794584527039 23.819110749870585, 36.426611965185366 23.897368756032446 M36.781615790612136 23.685832391312644 C36.70075466012203 23.734015166724845, 36.61989352963192 23.78219794213705, 36.426611965185366 23.897368756032446 M36.426611965185366 23.897368756032446 C36.323286505870634 23.947881495125785, 36.219961046555895 23.998394234219127, 36.055352123264846 24.078866633275286 M36.426611965185366 23.897368756032446 C36.329165153335424 23.945007599499476, 36.23171834148549 23.99264644296651, 36.055352123264846 24.078866633275286 M36.055352123264846 24.078866633275286 C35.945347736742434 24.121790478093864, 35.835343350220015 24.16471432291244, 35.67037234602342 24.229086208503173 M36.055352123264846 24.078866633275286 C35.94761567673971 24.120905525160815, 35.83987923021458 24.162944417046344, 35.67037234602342 24.229086208503173 M35.67037234602342 24.229086208503173 C35.5799974361683 24.255991984909723, 35.48962252631318 24.28289776131627, 35.274302435703994 24.347001329696653 M35.67037234602342 24.229086208503173 C35.5249660117294 24.27237554981353, 35.379559677435374 24.315664891123884, 35.274302435703994 24.347001329696653 M35.274302435703994 24.347001329696653 C35.13349646915891 24.376525236172455, 34.99269050261382 24.406049142648257, 34.86984795140367 24.431806517013612 M35.274302435703994 24.347001329696653 C35.16039161262429 24.370885917613673, 35.04648078954458 24.39477050553069, 34.86984795140367 24.431806517013612 M34.86984795140367 24.431806517013612 C34.7675285668584 24.44456061499636, 34.66520918231314 24.45731471297911, 34.45977172736166 24.482922465033347 M34.86984795140367 24.431806517013612 C34.716508027318554 24.450920318617683, 34.563168103233444 24.47003412022175, 34.45977172736166 24.482922465033347 M34.45977172736166 24.482922465033347 C34.34934841873815 24.487489606861285, 34.23892511011464 24.49205674868922, 34.046875 24.5 M34.45977172736166 24.482922465033347 C34.33461498200068 24.48809898631234, 34.20945823663969 24.493275507591335, 34.046875 24.5 M34.046875 24.5 C34.046875 24.5, 34.046875 24.5, 34.046875 24.5 M34.046875 24.5 C34.046875 24.5, 34.046875 24.5, 34.046875 24.5 M34.046875 24.5 C19.051829823820725 24.5, 4.056784647641454 24.5, -34.046875 24.5 M34.046875 24.5 C9.182927277649007 24.5, -15.681020444701986 24.5, -34.046875 24.5 M-34.046875 24.5 C-34.046875 24.5, -34.046875 24.5, -34.046875 24.5 M-34.046875 24.5 C-34.046875 24.5, -34.046875 24.5, -34.046875 24.5 M-34.046875 24.5 C-34.13412935148631 24.496391133327645, -34.22138370297262 24.49278226665529, -34.45977172736166 24.482922465033347 M-34.046875 24.5 C-34.174044770615005 24.494740219380628, -34.30121454123001 24.489480438761255, -34.45977172736166 24.482922465033347 M-34.45977172736166 24.482922465033347 C-34.55549091119105 24.470991081211853, -34.65121009502044 24.45905969739036, -34.86984795140367 24.431806517013612 M-34.45977172736166 24.482922465033347 C-34.61407290550171 24.463688843236287, -34.768374083641746 24.444455221439227, -34.86984795140367 24.431806517013612 M-34.86984795140367 24.431806517013612 C-34.96538679707775 24.411774127664653, -35.060925642751826 24.391741738315694, -35.274302435703994 24.347001329696653 M-34.86984795140367 24.431806517013612 C-34.95407535955158 24.414145886701743, -35.0383027676995 24.396485256389873, -35.274302435703994 24.347001329696653 M-35.274302435703994 24.347001329696653 C-35.36174849029503 24.32096751128142, -35.44919454488607 24.294933692866188, -35.67037234602342 24.229086208503173 M-35.274302435703994 24.347001329696653 C-35.42557216694354 24.301966379483872, -35.57684189818308 24.25693142927109, -35.67037234602342 24.229086208503173 M-35.67037234602342 24.229086208503173 C-35.821749509638465 24.170018655967308, -35.9731266732535 24.11095110343144, -36.055352123264846 24.078866633275286 M-35.67037234602342 24.229086208503173 C-35.768532752145504 24.19078389917795, -35.86669315826759 24.15248158985273, -36.055352123264846 24.078866633275286 M-36.055352123264846 24.078866633275286 C-36.14727158572638 24.033929946269847, -36.23919104818791 23.988993259264408, -36.426611965185366 23.897368756032446 M-36.055352123264846 24.078866633275286 C-36.191155151521095 24.01247657820185, -36.32695817977734 23.946086523128415, -36.426611965185366 23.897368756032446 M-36.426611965185366 23.897368756032446 C-36.52538501165013 23.83851279537811, -36.62415805811489 23.77965683472378, -36.781615790612136 23.685832391312644 M-36.426611965185366 23.897368756032446 C-36.522794386797315 23.840056472725976, -36.61897680840927 23.782744189419507, -36.781615790612136 23.685832391312644 M-36.781615790612136 23.685832391312644 C-36.8556263405401 23.632989874336598, -36.92963689046805 23.58014735736055, -37.11793856344834 23.44570254698197 M-36.781615790612136 23.685832391312644 C-36.880704308622846 23.615084549279192, -36.979792826633556 23.544336707245737, -37.11793856344834 23.44570254698197 M-37.11793856344834 23.44570254698197 C-37.22932471602772 23.351363288019133, -37.3407108686071 23.2570240290563, -37.433282858128706 23.17861955336566 M-37.11793856344834 23.44570254698197 C-37.23268356224138 23.348518490390088, -37.34742856103441 23.251334433798203, -37.433282858128706 23.17861955336566 M-37.433282858128706 23.17861955336566 C-37.54686558883519 23.065036822659174, -37.66044831954168 22.951454091952684, -37.72549455336566 22.886407858128706 M-37.433282858128706 23.17861955336566 C-37.504224458860605 23.10767795263376, -37.575166059592505 23.03673635190186, -37.72549455336566 22.886407858128706 M-37.72549455336566 22.886407858128706 C-37.815767705733066 22.77982254853476, -37.90604085810047 22.673237238940814, -37.99257754698197 22.57106356344834 M-37.72549455336566 22.886407858128706 C-37.829176225560815 22.76399113908956, -37.93285789775597 22.64157442005041, -37.99257754698197 22.57106356344834 M-37.99257754698197 22.57106356344834 C-38.06662400110066 22.467355051758343, -38.140670455219336 22.363646540068345, -38.232707391312644 22.234740790612133 M-37.99257754698197 22.57106356344834 C-38.05062481305541 22.489763308847355, -38.108672079128844 22.408463054246365, -38.232707391312644 22.234740790612133 M-38.232707391312644 22.234740790612133 C-38.30855300904714 22.10745542067932, -38.38439862678163 21.98017005074651, -38.44424375603244 21.87973696518537 M-38.232707391312644 22.234740790612133 C-38.31243504894137 22.100940517131953, -38.39216270657009 21.967140243651777, -38.44424375603244 21.87973696518537 M-38.44424375603244 21.87973696518537 C-38.51472733873972 21.735560492317415, -38.585210921446986 21.59138401944946, -38.62574163327528 21.50847712326485 M-38.44424375603244 21.87973696518537 C-38.50521890550236 21.75501030337988, -38.56619405497228 21.63028364157439, -38.62574163327528 21.50847712326485 M-38.62574163327528 21.50847712326485 C-38.65975032609477 21.4213203132016, -38.693759018914264 21.334163503138356, -38.775961208503176 21.123497346023417 M-38.62574163327528 21.50847712326485 C-38.65760167215474 21.426826841321837, -38.6894617110342 21.345176559378825, -38.775961208503176 21.123497346023417 M-38.775961208503176 21.123497346023417 C-38.81857897537569 20.980346790502104, -38.8611967422482 20.837196234980787, -38.89387632969665 20.727427435703994 M-38.775961208503176 21.123497346023417 C-38.80868584877384 21.01357721698441, -38.841410489044506 20.9036570879454, -38.89387632969665 20.727427435703994 M-38.89387632969665 20.727427435703994 C-38.91592377978733 20.622278324680472, -38.93797122987801 20.517129213656947, -38.97868151701361 20.32297295140367 M-38.89387632969665 20.727427435703994 C-38.92076322112239 20.59919797061959, -38.94765011254813 20.470968505535186, -38.97868151701361 20.32297295140367 M-38.97868151701361 20.32297295140367 C-38.99546397545791 20.188336160820796, -39.0122464339022 20.053699370237926, -39.02979746503335 19.912896727361662 M-38.97868151701361 20.32297295140367 C-38.99575146930848 20.18602974966646, -39.01282142160334 20.049086547929246, -39.02979746503335 19.912896727361662 M-39.02979746503335 19.912896727361662 C-39.03598646578945 19.7632604851978, -39.042175466545544 19.613624243033943, -39.046875 19.5 M-39.02979746503335 19.912896727361662 C-39.03625885560811 19.756674706576128, -39.04272024618288 19.600452685790593, -39.046875 19.5 M-39.046875 19.5 C-39.046875 19.5, -39.046875 19.5, -39.046875 19.5 M-39.046875 19.5 C-39.046875 19.5, -39.046875 19.5, -39.046875 19.5 M-39.046875 19.5 C-39.046875 11.557401544280243, -39.046875 3.6148030885604854, -39.046875 -19.5 M-39.046875 19.5 C-39.046875 7.974460756535441, -39.046875 -3.551078486929118, -39.046875 -19.5 M-39.046875 -19.5 C-39.046875 -19.5, -39.046875 -19.5, -39.046875 -19.5 M-39.046875 -19.5 C-39.046875 -19.5, -39.046875 -19.5, -39.046875 -19.5 M-39.046875 -19.5 C-39.04335623355578 -19.585075928815712, -39.039837467111546 -19.670151857631428, -39.02979746503335 -19.91289672736166 M-39.046875 -19.5 C-39.04219712056022 -19.613100697228774, -39.03751924112044 -19.726201394457547, -39.02979746503335 -19.91289672736166 M-39.02979746503335 -19.91289672736166 C-39.01130966912327 -20.061214538756598, -38.99282187321319 -20.209532350151537, -38.97868151701361 -20.32297295140367 M-39.02979746503335 -19.91289672736166 C-39.01128458074743 -20.06141580953078, -38.99277169646151 -20.2099348916999, -38.97868151701361 -20.32297295140367 M-38.97868151701361 -20.32297295140367 C-38.94823866083352 -20.468161590052986, -38.91779580465342 -20.613350228702306, -38.89387632969665 -20.727427435703994 M-38.97868151701361 -20.32297295140367 C-38.95935400685711 -20.41515007405939, -38.94002649670061 -20.507327196715107, -38.89387632969665 -20.727427435703994 M-38.89387632969665 -20.727427435703994 C-38.85569890396317 -20.855663148252486, -38.817521478229686 -20.983898860800974, -38.775961208503176 -21.123497346023417 M-38.89387632969665 -20.727427435703994 C-38.85804114381413 -20.847795703277445, -38.8222059579316 -20.9681639708509, -38.775961208503176 -21.123497346023417 M-38.775961208503176 -21.123497346023417 C-38.739642122487325 -21.216575186396646, -38.70332303647147 -21.309653026769876, -38.62574163327529 -21.508477123264846 M-38.775961208503176 -21.123497346023417 C-38.73979623426431 -21.21618023176118, -38.70363126002544 -21.30886311749894, -38.62574163327529 -21.508477123264846 M-38.62574163327529 -21.508477123264846 C-38.582037874931935 -21.597874589837843, -38.53833411658858 -21.687272056410837, -38.44424375603245 -21.879736965185366 M-38.62574163327529 -21.508477123264846 C-38.56817396905196 -21.62623366259169, -38.51060630482864 -21.743990201918535, -38.44424375603245 -21.879736965185366 M-38.44424375603245 -21.879736965185366 C-38.39833011465538 -21.95678999741329, -38.3524164732783 -22.033843029641215, -38.232707391312644 -22.234740790612133 M-38.44424375603245 -21.879736965185366 C-38.38481536603698 -21.979470672036616, -38.325386976041514 -22.07920437888787, -38.232707391312644 -22.234740790612133 M-38.232707391312644 -22.234740790612133 C-38.16690511588534 -22.326902611614965, -38.10110284045804 -22.4190644326178, -37.99257754698197 -22.57106356344834 M-38.232707391312644 -22.234740790612133 C-38.17625271917147 -22.313810478626138, -38.1197980470303 -22.392880166640147, -37.99257754698197 -22.57106356344834 M-37.99257754698197 -22.57106356344834 C-37.90112079137924 -22.679046350741523, -37.809664035776514 -22.787029138034708, -37.72549455336566 -22.886407858128706 M-37.99257754698197 -22.57106356344834 C-37.937235545037396 -22.636405741672096, -37.88189354309282 -22.70174791989585, -37.72549455336566 -22.886407858128706 M-37.72549455336566 -22.886407858128706 C-37.65363296133604 -22.958269450158326, -37.581771369306416 -23.030131042187946, -37.433282858128706 -23.178619553365657 M-37.72549455336566 -22.886407858128706 C-37.615656724990856 -22.99624568650351, -37.50581889661605 -23.10608351487831, -37.433282858128706 -23.178619553365657 M-37.433282858128706 -23.178619553365657 C-37.36503730386254 -23.23642058938214, -37.29679174959637 -23.29422162539862, -37.11793856344834 -23.445702546981966 M-37.433282858128706 -23.178619553365657 C-37.37000429967385 -23.23221375852157, -37.306725741219005 -23.285807963677485, -37.11793856344834 -23.445702546981966 M-37.11793856344834 -23.445702546981966 C-37.02243264166639 -23.513892464473297, -36.92692671988445 -23.58208238196463, -36.781615790612136 -23.685832391312644 M-37.11793856344834 -23.445702546981966 C-36.99762975705743 -23.531601383705485, -36.87732095066653 -23.617500220429, -36.781615790612136 -23.685832391312644 M-36.781615790612136 -23.685832391312644 C-36.667549903217 -23.7538009072268, -36.55348401582186 -23.821769423140957, -36.426611965185366 -23.897368756032446 M-36.781615790612136 -23.685832391312644 C-36.701957288689925 -23.733298555643106, -36.622298786767715 -23.780764719973565, -36.426611965185366 -23.897368756032446 M-36.426611965185366 -23.897368756032446 C-36.324984989112394 -23.947051157265065, -36.22335801303942 -23.99673355849768, -36.055352123264846 -24.078866633275286 M-36.426611965185366 -23.897368756032446 C-36.31396638239206 -23.952437825856983, -36.201320799598754 -24.00750689568152, -36.055352123264846 -24.078866633275286 M-36.055352123264846 -24.078866633275286 C-35.9109205286856 -24.135224016363424, -35.76648893410635 -24.19158139945156, -35.67037234602342 -24.229086208503173 M-36.055352123264846 -24.078866633275286 C-35.904713960740935 -24.13764582669058, -35.75407579821703 -24.196425020105874, -35.67037234602342 -24.229086208503173 M-35.67037234602342 -24.229086208503173 C-35.5211923722569 -24.273499010960528, -35.37201239849038 -24.317911813417886, -35.274302435703994 -24.347001329696653 M-35.67037234602342 -24.229086208503173 C-35.59078471738305 -24.25278047214734, -35.51119708874268 -24.27647473579151, -35.274302435703994 -24.347001329696653 M-35.274302435703994 -24.347001329696653 C-35.138273404034116 -24.375523618258406, -35.00224437236424 -24.40404590682016, -34.86984795140367 -24.431806517013612 M-35.274302435703994 -24.347001329696653 C-35.18543079497197 -24.365635753178154, -35.09655915423995 -24.38427017665966, -34.86984795140367 -24.431806517013612 M-34.86984795140367 -24.431806517013612 C-34.74572871181035 -24.44727796409427, -34.62160947221704 -24.462749411174922, -34.45977172736166 -24.482922465033347 M-34.86984795140367 -24.431806517013612 C-34.73246286627826 -24.448931550015374, -34.59507778115286 -24.466056583017135, -34.45977172736166 -24.482922465033347 M-34.45977172736166 -24.482922465033347 C-34.3737599508598 -24.48647993842419, -34.287748174357944 -24.490037411815027, -34.046875 -24.5 M-34.45977172736166 -24.482922465033347 C-34.36715275806316 -24.486753213939682, -34.27453378876466 -24.49058396284602, -34.046875 -24.5 M-34.046875 -24.5 C-34.046875 -24.5, -34.046875 -24.5, -34.046875 -24.5 M-34.046875 -24.5 C-34.046875 -24.5, -34.046875 -24.5, -34.046875 -24.5" stroke="#FF5978" stroke-width="1" fill="none" stroke-dasharray="0 0" style="stroke-width:1px !important;stroke-dasharray:none !important;stroke:#FF5978 !important;fill:#FFDFE5 !important"/></g><g class="label" style="color:#8E2236 !important" transform="translate(0, -9.5)"><rect/><g><rect class="background" style="stroke: none"/><text y="-10.1" style="fill:#8E2236 !important"><tspan class="text-outer-tspan" x="0" y="-0.1em" dy="1.1em"><tspan font-style="normal" class="text-inner-tspan" font-weight="normal">U(p,</tspan><tspan font-style="normal" class="text-inner-tspan" font-weight="normal"> t)</tspan></tspan></text></g></g></g></g></g></g></svg>